solid OpenSCAD_Model
  facet normal -0.995472 0.0950561 0
    outer loop
      vertex -5.15513 0.993568 -4.75
      vertex -5.25 0 4.75
      vertex -5.15513 0.993568 4.75
    endloop
  endfacet
  facet normal -2.7054e-07 2.58334e-08 1
    outer loop
      vertex -5.25 0 4.75
      vertex -1.23773 5.10201 4.75
      vertex -5.15513 0.993568 4.75
    endloop
  endfacet
  facet normal -6.81831e-07 5.36197e-07 1
    outer loop
      vertex -4.41658 2.83836 4.75
      vertex -1.23773 5.10201 4.75
      vertex -3.7996 3.62291 4.75
    endloop
  endfacet
  facet normal -0.995472 0.0950552 -9.99322e-08
    outer loop
      vertex -5.25 0 -4.75
      vertex -5.25 0 4.75
      vertex -5.15513 0.993568 -4.75
    endloop
  endfacet
  facet normal -0.142314 -0.989822 0
    outer loop
      vertex -1.23773 -5.10201 -4.75
      vertex -0.249804 -5.24405 4.75
      vertex -1.23773 -5.10201 4.75
    endloop
  endfacet
  facet normal -0.142314 -0.989822 -0
    outer loop
      vertex -0.249804 -5.24405 4.75
      vertex -1.23773 -5.10201 -4.75
      vertex -0.249804 -5.24405 -4.75
    endloop
  endfacet
  facet normal 1 -0 0
    outer loop
      vertex 5.22623 -0.499043 4.75
      vertex 5.22623 0.499043 -4.75
      vertex 5.22623 0.499043 4.75
    endloop
  endfacet
  facet normal 1 0 0
    outer loop
      vertex 5.22623 0.499043 -4.75
      vertex 5.22623 -0.499043 4.75
      vertex 5.22623 -0.499043 -4.75
    endloop
  endfacet
  facet normal -0.995472 -0.0950561 0
    outer loop
      vertex -5.15513 -0.993568 -4.75
      vertex -5.15513 -0.993568 4.75
      vertex -5.25 0 4.75
    endloop
  endfacet
  facet normal 0.0475821 0.998867 -0
    outer loop
      vertex 0.747152 5.19656 -4.75
      vertex -0.249804 5.24405 4.75
      vertex 0.747152 5.19656 4.75
    endloop
  endfacet
  facet normal 0.0475821 0.998867 0
    outer loop
      vertex -0.249804 5.24405 4.75
      vertex 0.747152 5.19656 -4.75
      vertex -0.249804 5.24405 -4.75
    endloop
  endfacet
  facet normal -3.51774e-07 1.0329e-07 1
    outer loop
      vertex -5.15513 0.993568 4.75
      vertex -1.23773 5.10201 4.75
      vertex -4.87393 1.95123 4.75
    endloop
  endfacet
  facet normal -0.327069 0.945001 0
    outer loop
      vertex -1.23773 5.10201 -4.75
      vertex -2.18093 4.77557 4.75
      vertex -1.23773 5.10201 4.75
    endloop
  endfacet
  facet normal -0.327069 0.945001 0
    outer loop
      vertex -2.18093 4.77557 4.75
      vertex -1.23773 5.10201 -4.75
      vertex -2.18093 4.77557 -4.75
    endloop
  endfacet
  facet normal 0.723734 0.690079 0
    outer loop
      vertex 4.12678 3.24533 4.75
      vertex 3.43802 3.96768 -4.75
      vertex 3.43802 3.96768 4.75
    endloop
  endfacet
  facet normal 0.723734 0.690079 0
    outer loop
      vertex 3.43802 3.96768 -4.75
      vertex 4.12678 3.24533 4.75
      vertex 4.12678 3.24533 -4.75
    endloop
  endfacet
  facet normal 1.23286e-06 1.17553e-06 -1
    outer loop
      vertex 3.43802 3.96768 -4.75
      vertex 4.12678 3.24533 -4.75
      vertex 1.71711 4.96125 -4.75
    endloop
  endfacet
  facet normal 3.59999e-07 6.93842e-08 -1
    outer loop
      vertex 5.03734 1.4791 -4.75
      vertex 5.22623 0.499043 -4.75
      vertex 1.71711 4.96125 -4.75
    endloop
  endfacet
  facet normal 0 0 -1
    outer loop
      vertex 1.71711 -4.96125 -4.75
      vertex 1.20509 -2.74732 -4.75
      vertex 1.71711 -2.4128 -4.75
    endloop
  endfacet
  facet normal 0 0 -1
    outer loop
      vertex 0.247738 -2.98975 -4.75
      vertex 1.71711 -4.96125 -4.75
      vertex 0.747152 -5.19656 -4.75
    endloop
  endfacet
  facet normal 0 0 -1
    outer loop
      vertex 1.71711 -4.96125 -4.75
      vertex 0.247738 -2.98975 -4.75
      vertex 1.20509 -2.74732 -4.75
    endloop
  endfacet
  facet normal 0 0 -1
    outer loop
      vertex -0.249804 -5.24405 -4.75
      vertex 0.247738 -2.98975 -4.75
      vertex 0.747152 -5.19656 -4.75
    endloop
  endfacet
  facet normal 0 0 -1
    outer loop
      vertex -0.249804 -5.24405 -4.75
      vertex -0.736456 -2.9082 -4.75
      vertex 0.247738 -2.98975 -4.75
    endloop
  endfacet
  facet normal 0 0 -1
    outer loop
      vertex -1.23773 -5.10201 -4.75
      vertex -0.736456 -2.9082 -4.75
      vertex -0.249804 -5.24405 -4.75
    endloop
  endfacet
  facet normal 0 0 -1
    outer loop
      vertex -2.18093 -4.77557 -4.75
      vertex -0.736456 -2.9082 -4.75
      vertex -1.23773 -5.10201 -4.75
    endloop
  endfacet
  facet normal -0 0 -1
    outer loop
      vertex -0.736456 -2.9082 -4.75
      vertex -2.18093 -4.77557 -4.75
      vertex -1.64084 -2.5115 -4.75
    endloop
  endfacet
  facet normal 0 0 -1
    outer loop
      vertex -3.0453 -4.27652 -4.75
      vertex -1.64084 -2.5115 -4.75
      vertex -2.18093 -4.77557 -4.75
    endloop
  endfacet
  facet normal 0 0 -1
    outer loop
      vertex -3.7996 -3.62291 -4.75
      vertex -1.64084 -2.5115 -4.75
      vertex -3.0453 -4.27652 -4.75
    endloop
  endfacet
  facet normal -0 0 -1
    outer loop
      vertex -2.36742 -1.84264 -4.75
      vertex -4.41658 -2.83836 -4.75
      vertex -2.83745 -0.974098 -4.75
    endloop
  endfacet
  facet normal 0 0 -1
    outer loop
      vertex -4.41658 -2.83836 -4.75
      vertex -2.36742 -1.84264 -4.75
      vertex -3.7996 -3.62291 -4.75
    endloop
  endfacet
  facet normal -0 0 -1
    outer loop
      vertex -1.64084 -2.5115 -4.75
      vertex -3.7996 -3.62291 -4.75
      vertex -2.36742 -1.84264 -4.75
    endloop
  endfacet
  facet normal 0 0 -1
    outer loop
      vertex 1.20509 2.74732 -4.75
      vertex 1.71711 4.96125 -4.75
      vertex 1.71711 2.4128 -4.75
    endloop
  endfacet
  facet normal 0 0 -1
    outer loop
      vertex 0.247738 2.98975 -4.75
      vertex 1.71711 4.96125 -4.75
      vertex 1.20509 2.74732 -4.75
    endloop
  endfacet
  facet normal -0 0 -1
    outer loop
      vertex 1.71711 4.96125 -4.75
      vertex 0.247738 2.98975 -4.75
      vertex 0.747152 5.19656 -4.75
    endloop
  endfacet
  facet normal 0 0 -1
    outer loop
      vertex 0.247738 2.98975 -4.75
      vertex -0.249804 5.24405 -4.75
      vertex 0.747152 5.19656 -4.75
    endloop
  endfacet
  facet normal 0 0 -1
    outer loop
      vertex -0.736456 2.9082 -4.75
      vertex -0.249804 5.24405 -4.75
      vertex 0.247738 2.98975 -4.75
    endloop
  endfacet
  facet normal 0 0 -1
    outer loop
      vertex -0.736456 2.9082 -4.75
      vertex -1.23773 5.10201 -4.75
      vertex -0.249804 5.24405 -4.75
    endloop
  endfacet
  facet normal 0 0 -1
    outer loop
      vertex -2.18093 4.77557 -4.75
      vertex -0.736456 2.9082 -4.75
      vertex -1.64084 2.5115 -4.75
    endloop
  endfacet
  facet normal 0 0 -1
    outer loop
      vertex -0.736456 2.9082 -4.75
      vertex -2.18093 4.77557 -4.75
      vertex -1.23773 5.10201 -4.75
    endloop
  endfacet
  facet normal 0 0 -1
    outer loop
      vertex -3.7996 3.62291 -4.75
      vertex -1.64084 2.5115 -4.75
      vertex -2.36742 1.84264 -4.75
    endloop
  endfacet
  facet normal 0 0 -1
    outer loop
      vertex -4.41658 2.83836 -4.75
      vertex -2.36742 1.84264 -4.75
      vertex -2.83745 0.974098 -4.75
    endloop
  endfacet
  facet normal 0 0 -1
    outer loop
      vertex -1.64084 2.5115 -4.75
      vertex -3.0453 4.27652 -4.75
      vertex -2.18093 4.77557 -4.75
    endloop
  endfacet
  facet normal 0 0 -1
    outer loop
      vertex -5.15513 0.993568 -4.75
      vertex -2.83745 0.974098 -4.75
      vertex -2.90328 0.579588 -4.75
    endloop
  endfacet
  facet normal 0 0 -1
    outer loop
      vertex -5.15513 0.993568 -4.75
      vertex -2.90328 0.579588 -4.75
      vertex -3 0 -4.75
    endloop
  endfacet
  facet normal 0 0 -1
    outer loop
      vertex -4.87393 -1.95123 -4.75
      vertex -2.83745 -0.974098 -4.75
      vertex -4.41658 -2.83836 -4.75
    endloop
  endfacet
  facet normal 0 0 -1
    outer loop
      vertex -5.15513 -0.993568 -4.75
      vertex -2.83745 -0.974098 -4.75
      vertex -4.87393 -1.95123 -4.75
    endloop
  endfacet
  facet normal 0 0 -1
    outer loop
      vertex -1.64084 2.5115 -4.75
      vertex -3.7996 3.62291 -4.75
      vertex -3.0453 4.27652 -4.75
    endloop
  endfacet
  facet normal -0 0 -1
    outer loop
      vertex -2.83745 -0.974098 -4.75
      vertex -5.15513 -0.993568 -4.75
      vertex -2.90328 -0.579588 -4.75
    endloop
  endfacet
  facet normal 0 0 -1
    outer loop
      vertex -2.36742 1.84264 -4.75
      vertex -4.41658 2.83836 -4.75
      vertex -3.7996 3.62291 -4.75
    endloop
  endfacet
  facet normal -0 0 -1
    outer loop
      vertex -2.90328 -0.579588 -4.75
      vertex -5.15513 -0.993568 -4.75
      vertex -3 0 -4.75
    endloop
  endfacet
  facet normal 0 0 -1
    outer loop
      vertex -2.83745 0.974098 -4.75
      vertex -4.87393 1.95123 -4.75
      vertex -4.41658 2.83836 -4.75
    endloop
  endfacet
  facet normal 0 0 -1
    outer loop
      vertex -5.25 0 -4.75
      vertex -3 0 -4.75
      vertex -5.15513 -0.993568 -4.75
    endloop
  endfacet
  facet normal 0 0 -1
    outer loop
      vertex -2.83745 0.974098 -4.75
      vertex -5.15513 0.993568 -4.75
      vertex -4.87393 1.95123 -4.75
    endloop
  endfacet
  facet normal 0 0 -1
    outer loop
      vertex -3 0 -4.75
      vertex -5.25 0 -4.75
      vertex -5.15513 0.993568 -4.75
    endloop
  endfacet
  facet normal -4.74027e-07 2.44378e-07 1
    outer loop
      vertex -4.87393 1.95123 4.75
      vertex -1.23773 5.10201 4.75
      vertex -4.41658 2.83836 4.75
    endloop
  endfacet
  facet normal -0.959493 0.281733 0
    outer loop
      vertex -5.15513 0.993568 -4.75
      vertex -4.87393 1.95123 4.75
      vertex -4.87393 1.95123 -4.75
    endloop
  endfacet
  facet normal -0.959493 0.281733 0
    outer loop
      vertex -4.87393 1.95123 4.75
      vertex -5.15513 0.993568 -4.75
      vertex -5.15513 0.993568 4.75
    endloop
  endfacet
  facet normal -0.142314 0.989822 0
    outer loop
      vertex -0.249804 5.24405 -4.75
      vertex -1.23773 5.10201 4.75
      vertex -0.249804 5.24405 4.75
    endloop
  endfacet
  facet normal -0.142314 0.989822 0
    outer loop
      vertex -1.23773 5.10201 4.75
      vertex -0.249804 5.24405 -4.75
      vertex -1.23773 5.10201 -4.75
    endloop
  endfacet
  facet normal 2.10325e-07 0 -1
    outer loop
      vertex 5.22623 -0.499043 -4.75
      vertex 2.95908 -0.493783 -4.75
      vertex 5.22623 0.499043 -4.75
    endloop
  endfacet
  facet normal 2.10158e-07 -7.21471e-08 -1
    outer loop
      vertex 5.22623 -0.499043 -4.75
      vertex 2.63842 -1.42784 -4.75
      vertex 2.95908 -0.493783 -4.75
    endloop
  endfacet
  facet normal -4.90397e-08 6.50025e-07 -1
    outer loop
      vertex 5.22623 -0.499043 -4.75
      vertex 2.03184 -2.20717 -4.75
      vertex 2.63842 -1.42784 -4.75
    endloop
  endfacet
  facet normal 3.17979e-07 -3.63388e-08 -1
    outer loop
      vertex 1.71711 -4.96125 -4.75
      vertex 2.03184 -2.20717 -4.75
      vertex 5.22623 -0.499043 -4.75
    endloop
  endfacet
  facet normal 0 0 -1
    outer loop
      vertex 2.03184 -2.20717 -4.75
      vertex 1.71711 -4.96125 -4.75
      vertex 1.71711 -2.4128 -4.75
    endloop
  endfacet
  facet normal 2.10325e-07 0 -1
    outer loop
      vertex 2.95908 0.493783 -4.75
      vertex 5.22623 0.499043 -4.75
      vertex 2.95908 -0.493783 -4.75
    endloop
  endfacet
  facet normal 2.10158e-07 7.21471e-08 -1
    outer loop
      vertex 2.63842 1.42784 -4.75
      vertex 5.22623 0.499043 -4.75
      vertex 2.95908 0.493783 -4.75
    endloop
  endfacet
  facet normal -4.90397e-08 -6.50025e-07 -1
    outer loop
      vertex 2.03184 2.20717 -4.75
      vertex 5.22623 0.499043 -4.75
      vertex 2.63842 1.42784 -4.75
    endloop
  endfacet
  facet normal 0 0 -1
    outer loop
      vertex 1.71711 4.96125 -4.75
      vertex 2.03184 2.20717 -4.75
      vertex 1.71711 2.4128 -4.75
    endloop
  endfacet
  facet normal 3.17979e-07 3.63388e-08 -1
    outer loop
      vertex 2.03184 2.20717 -4.75
      vertex 1.71711 4.96125 -4.75
      vertex 5.22623 0.499043 -4.75
    endloop
  endfacet
  facet normal 0.841254 0.54064 0
    outer loop
      vertex 4.66639 2.40569 4.75
      vertex 4.12678 3.24533 -4.75
      vertex 4.12678 3.24533 4.75
    endloop
  endfacet
  facet normal 0.841254 0.54064 0
    outer loop
      vertex 4.12678 3.24533 -4.75
      vertex 4.66639 2.40569 4.75
      vertex 4.66639 2.40569 -4.75
    endloop
  endfacet
  facet normal 0.841254 -0.54064 0
    outer loop
      vertex 4.12678 -3.24533 4.75
      vertex 4.66639 -2.40569 -4.75
      vertex 4.66639 -2.40569 4.75
    endloop
  endfacet
  facet normal 0.841254 -0.54064 0
    outer loop
      vertex 4.66639 -2.40569 -4.75
      vertex 4.12678 -3.24533 4.75
      vertex 4.12678 -3.24533 -4.75
    endloop
  endfacet
  facet normal 0 0 1
    outer loop
      vertex 2.95908 0.493783 4.75
      vertex 5.22623 0.499043 4.75
      vertex 5.03734 1.4791 4.75
    endloop
  endfacet
  facet normal 0 0 1
    outer loop
      vertex 5.22623 0.499043 4.75
      vertex 2.95908 0.493783 4.75
      vertex 5.22623 -0.499043 4.75
    endloop
  endfacet
  facet normal 0 0 1
    outer loop
      vertex 2.63842 1.42784 4.75
      vertex 5.03734 1.4791 4.75
      vertex 4.66639 2.40569 4.75
    endloop
  endfacet
  facet normal -0 0 1
    outer loop
      vertex 2.95908 -0.493783 4.75
      vertex 5.22623 -0.499043 4.75
      vertex 2.95908 0.493783 4.75
    endloop
  endfacet
  facet normal 0 0 1
    outer loop
      vertex 2.63842 1.42784 4.75
      vertex 4.66639 2.40569 4.75
      vertex 4.12678 3.24533 4.75
    endloop
  endfacet
  facet normal 0 0 1
    outer loop
      vertex 5.22623 -0.499043 4.75
      vertex 2.95908 -0.493783 4.75
      vertex 5.03734 -1.4791 4.75
    endloop
  endfacet
  facet normal 0 0 1
    outer loop
      vertex 2.03184 2.20717 4.75
      vertex 4.12678 3.24533 4.75
      vertex 3.43802 3.96768 4.75
    endloop
  endfacet
  facet normal -0 0 1
    outer loop
      vertex 2.63842 -1.42784 4.75
      vertex 5.03734 -1.4791 4.75
      vertex 2.95908 -0.493783 4.75
    endloop
  endfacet
  facet normal 0 0 1
    outer loop
      vertex 5.03734 -1.4791 4.75
      vertex 2.63842 -1.42784 4.75
      vertex 4.66639 -2.40569 4.75
    endloop
  endfacet
  facet normal 0 0 1
    outer loop
      vertex 5.03734 1.4791 4.75
      vertex 2.63842 1.42784 4.75
      vertex 2.95908 0.493783 4.75
    endloop
  endfacet
  facet normal 0 0 1
    outer loop
      vertex 2.03184 2.20717 4.75
      vertex 3.43802 3.96768 4.75
      vertex 2.625 4.54663 4.75
    endloop
  endfacet
  facet normal 0 0 1
    outer loop
      vertex 4.12678 3.24533 4.75
      vertex 2.03184 2.20717 4.75
      vertex 2.63842 1.42784 4.75
    endloop
  endfacet
  facet normal 0 0 1
    outer loop
      vertex 1.20509 2.74732 4.75
      vertex 2.625 4.54663 4.75
      vertex 1.71711 4.96125 4.75
    endloop
  endfacet
  facet normal 0 0 1
    outer loop
      vertex 2.625 4.54663 4.75
      vertex 1.20509 2.74732 4.75
      vertex 2.03184 2.20717 4.75
    endloop
  endfacet
  facet normal 0 0 1
    outer loop
      vertex 0.247738 2.98975 4.75
      vertex 1.71711 4.96125 4.75
      vertex 0.747152 5.19656 4.75
    endloop
  endfacet
  facet normal 0 0 1
    outer loop
      vertex 1.71711 4.96125 4.75
      vertex 0.247738 2.98975 4.75
      vertex 1.20509 2.74732 4.75
    endloop
  endfacet
  facet normal 0 0 1
    outer loop
      vertex -0.249804 5.24405 4.75
      vertex 0.247738 2.98975 4.75
      vertex 0.747152 5.19656 4.75
    endloop
  endfacet
  facet normal 0 0 1
    outer loop
      vertex -0.249804 5.24405 4.75
      vertex -0.736456 2.9082 4.75
      vertex 0.247738 2.98975 4.75
    endloop
  endfacet
  facet normal -0 0 1
    outer loop
      vertex -1.23773 5.10201 4.75
      vertex -0.736456 2.9082 4.75
      vertex -0.249804 5.24405 4.75
    endloop
  endfacet
  facet normal 0 0 1
    outer loop
      vertex -0.736456 2.9082 4.75
      vertex -1.23773 5.10201 4.75
      vertex -1.23773 2.68832 4.75
    endloop
  endfacet
  facet normal 0 0 1
    outer loop
      vertex 4.66639 -2.40569 4.75
      vertex 2.63842 -1.42784 4.75
      vertex 4.12678 -3.24533 4.75
    endloop
  endfacet
  facet normal -0 0 1
    outer loop
      vertex 2.03184 -2.20717 4.75
      vertex 4.12678 -3.24533 4.75
      vertex 2.63842 -1.42784 4.75
    endloop
  endfacet
  facet normal 0 0 1
    outer loop
      vertex 4.12678 -3.24533 4.75
      vertex 2.03184 -2.20717 4.75
      vertex 3.43802 -3.96768 4.75
    endloop
  endfacet
  facet normal 0 0 1
    outer loop
      vertex 3.43802 -3.96768 4.75
      vertex 2.03184 -2.20717 4.75
      vertex 2.625 -4.54663 4.75
    endloop
  endfacet
  facet normal -0 0 1
    outer loop
      vertex 1.20509 -2.74732 4.75
      vertex 2.625 -4.54663 4.75
      vertex 2.03184 -2.20717 4.75
    endloop
  endfacet
  facet normal 0 0 1
    outer loop
      vertex 2.625 -4.54663 4.75
      vertex 1.20509 -2.74732 4.75
      vertex 1.71711 -4.96125 4.75
    endloop
  endfacet
  facet normal -0 0 1
    outer loop
      vertex 0.247738 -2.98975 4.75
      vertex 1.71711 -4.96125 4.75
      vertex 1.20509 -2.74732 4.75
    endloop
  endfacet
  facet normal 0 0 1
    outer loop
      vertex 1.71711 -4.96125 4.75
      vertex 0.247738 -2.98975 4.75
      vertex 0.747152 -5.19656 4.75
    endloop
  endfacet
  facet normal 0 0 1
    outer loop
      vertex 0.247738 -2.98975 4.75
      vertex -0.249804 -5.24405 4.75
      vertex 0.747152 -5.19656 4.75
    endloop
  endfacet
  facet normal 0 0 1
    outer loop
      vertex -0.736456 -2.9082 4.75
      vertex -0.249804 -5.24405 4.75
      vertex 0.247738 -2.98975 4.75
    endloop
  endfacet
  facet normal 0 0 1
    outer loop
      vertex -1.23773 -5.10201 4.75
      vertex -0.736456 -2.9082 4.75
      vertex -1.23773 -2.68832 4.75
    endloop
  endfacet
  facet normal 0 0 1
    outer loop
      vertex -0.736456 -2.9082 4.75
      vertex -1.23773 -5.10201 4.75
      vertex -0.249804 -5.24405 4.75
    endloop
  endfacet
  facet normal 0 0 1
    outer loop
      vertex -1.23773 5.10201 4.75
      vertex -1.64084 2.5115 4.75
      vertex -1.23773 2.68832 4.75
    endloop
  endfacet
  facet normal -7.6601e-07 1.19199e-07 1
    outer loop
      vertex -1.23773 5.10201 4.75
      vertex -2.36742 1.84264 4.75
      vertex -1.64084 2.5115 4.75
    endloop
  endfacet
  facet normal -9.23668e-08 -1.14283e-07 1
    outer loop
      vertex -5.25 0 4.75
      vertex -2.36742 1.84264 4.75
      vertex -1.23773 5.10201 4.75
    endloop
  endfacet
  facet normal -2.11928e-07 3.53644e-08 1
    outer loop
      vertex -2.93417 0.39451 4.75
      vertex -5.25 0 4.75
      vertex -3 0 4.75
    endloop
  endfacet
  facet normal -2.11928e-07 3.53646e-08 1
    outer loop
      vertex -2.83745 0.974098 4.75
      vertex -5.25 0 4.75
      vertex -2.93417 0.39451 4.75
    endloop
  endfacet
  facet normal -2.52911e-07 1.36869e-07 1
    outer loop
      vertex -2.36742 1.84264 4.75
      vertex -5.25 0 4.75
      vertex -2.83745 0.974098 4.75
    endloop
  endfacet
  facet normal 0 0 1
    outer loop
      vertex -1.64084 -2.5115 4.75
      vertex -1.23773 -5.10201 4.75
      vertex -1.23773 -2.68832 4.75
    endloop
  endfacet
  facet normal -7.6601e-07 -1.19199e-07 1
    outer loop
      vertex -2.36742 -1.84264 4.75
      vertex -1.23773 -5.10201 4.75
      vertex -1.64084 -2.5115 4.75
    endloop
  endfacet
  facet normal -2.52911e-07 -1.36869e-07 1
    outer loop
      vertex -5.25 0 4.75
      vertex -2.36742 -1.84264 4.75
      vertex -2.83745 -0.974098 4.75
    endloop
  endfacet
  facet normal -9.23668e-08 1.14283e-07 1
    outer loop
      vertex -2.36742 -1.84264 4.75
      vertex -5.25 0 4.75
      vertex -1.23773 -5.10201 4.75
    endloop
  endfacet
  facet normal -2.11928e-07 -3.53646e-08 1
    outer loop
      vertex -2.93417 -0.39451 4.75
      vertex -5.25 0 4.75
      vertex -2.83745 -0.974098 4.75
    endloop
  endfacet
  facet normal -2.11928e-07 -3.53644e-08 1
    outer loop
      vertex -5.25 0 4.75
      vertex -2.93417 -0.39451 4.75
      vertex -3 0 4.75
    endloop
  endfacet
  facet normal -0.786053 -0.618159 0
    outer loop
      vertex -3.7996 -3.62291 -4.75
      vertex -4.41658 -2.83836 4.75
      vertex -4.41658 -2.83836 -4.75
    endloop
  endfacet
  facet normal -0.786053 -0.618159 0
    outer loop
      vertex -4.41658 -2.83836 4.75
      vertex -3.7996 -3.62291 -4.75
      vertex -3.7996 -3.62291 4.75
    endloop
  endfacet
  facet normal -0.786053 0.618159 0
    outer loop
      vertex -4.41658 2.83836 -4.75
      vertex -3.7996 3.62291 4.75
      vertex -3.7996 3.62291 -4.75
    endloop
  endfacet
  facet normal -0.786053 0.618159 0
    outer loop
      vertex -3.7996 3.62291 4.75
      vertex -4.41658 2.83836 -4.75
      vertex -4.41658 2.83836 4.75
    endloop
  endfacet
  facet normal -1.11554e-06 1.2874e-06 1
    outer loop
      vertex -3.7996 3.62291 4.75
      vertex -1.23773 5.10201 4.75
      vertex -3.0453 4.27652 4.75
    endloop
  endfacet
  facet normal 0.981929 0.189251 0
    outer loop
      vertex 5.22623 0.499043 4.75
      vertex 5.03734 1.4791 -4.75
      vertex 5.03734 1.4791 4.75
    endloop
  endfacet
  facet normal 0.981929 0.189251 0
    outer loop
      vertex 5.03734 1.4791 -4.75
      vertex 5.22623 0.499043 4.75
      vertex 5.22623 0.499043 -4.75
    endloop
  endfacet
  facet normal 0.415415 0.909632 -0
    outer loop
      vertex 2.625 4.54663 -4.75
      vertex 1.71711 4.96125 4.75
      vertex 2.625 4.54663 4.75
    endloop
  endfacet
  facet normal 0.415415 0.909632 0
    outer loop
      vertex 1.71711 4.96125 4.75
      vertex 2.625 4.54663 -4.75
      vertex 1.71711 4.96125 -4.75
    endloop
  endfacet
  facet normal 0.235758 0.971812 -0
    outer loop
      vertex 1.71711 4.96125 -4.75
      vertex 0.747152 5.19656 4.75
      vertex 1.71711 4.96125 4.75
    endloop
  endfacet
  facet normal 0.235758 0.971812 0
    outer loop
      vertex 0.747152 5.19656 4.75
      vertex 1.71711 4.96125 -4.75
      vertex 0.747152 5.19656 -4.75
    endloop
  endfacet
  facet normal 0.580056 0.814576 -0
    outer loop
      vertex 3.43802 3.96768 -4.75
      vertex 2.625 4.54663 4.75
      vertex 3.43802 3.96768 4.75
    endloop
  endfacet
  facet normal 0.580056 0.814576 0
    outer loop
      vertex 2.625 4.54663 4.75
      vertex 3.43802 3.96768 -4.75
      vertex 2.625 4.54663 -4.75
    endloop
  endfacet
  facet normal 1.23286e-06 -1.17553e-06 -1
    outer loop
      vertex 4.12678 -3.24533 -4.75
      vertex 3.43802 -3.96768 -4.75
      vertex 1.71711 -4.96125 -4.75
    endloop
  endfacet
  facet normal 3.59999e-07 -6.93842e-08 -1
    outer loop
      vertex 5.22623 -0.499043 -4.75
      vertex 5.03734 -1.4791 -4.75
      vertex 1.71711 -4.96125 -4.75
    endloop
  endfacet
  facet normal -0.959493 -0.281733 0
    outer loop
      vertex -4.87393 -1.95123 -4.75
      vertex -5.15513 -0.993568 4.75
      vertex -5.15513 -0.993568 -4.75
    endloop
  endfacet
  facet normal -0.959493 -0.281733 0
    outer loop
      vertex -5.15513 -0.993568 4.75
      vertex -4.87393 -1.95123 -4.75
      vertex -4.87393 -1.95123 4.75
    endloop
  endfacet
  facet normal -2.52444e-06 -4.37247e-06 1
    outer loop
      vertex -2.18093 -4.77557 4.75
      vertex -1.23773 -5.10201 4.75
      vertex -3.0453 -4.27652 4.75
    endloop
  endfacet
  facet normal 0.0475821 -0.998867 0
    outer loop
      vertex -0.249804 -5.24405 -4.75
      vertex 0.747152 -5.19656 4.75
      vertex -0.249804 -5.24405 4.75
    endloop
  endfacet
  facet normal 0.0475821 -0.998867 0
    outer loop
      vertex 0.747152 -5.19656 4.75
      vertex -0.249804 -5.24405 -4.75
      vertex 0.747152 -5.19656 -4.75
    endloop
  endfacet
  facet normal -4.74027e-07 -2.44378e-07 1
    outer loop
      vertex -4.41658 -2.83836 4.75
      vertex -1.23773 -5.10201 4.75
      vertex -4.87393 -1.95123 4.75
    endloop
  endfacet
  facet normal -0.995472 -0.0950552 -9.99322e-08
    outer loop
      vertex -5.15513 -0.993568 -4.75
      vertex -5.25 0 4.75
      vertex -5.25 0 -4.75
    endloop
  endfacet
  facet normal -0.654861 0.755749 0
    outer loop
      vertex -3.0453 4.27652 -4.75
      vertex -3.7996 3.62291 4.75
      vertex -3.0453 4.27652 4.75
    endloop
  endfacet
  facet normal -0.654861 0.755749 0
    outer loop
      vertex -3.7996 3.62291 4.75
      vertex -3.0453 4.27652 -4.75
      vertex -3.7996 3.62291 -4.75
    endloop
  endfacet
  facet normal -0.499999 0.866026 0
    outer loop
      vertex -2.18093 4.77557 -4.75
      vertex -3.0453 4.27652 4.75
      vertex -2.18093 4.77557 4.75
    endloop
  endfacet
  facet normal -0.499999 0.866026 0
    outer loop
      vertex -3.0453 4.27652 4.75
      vertex -2.18093 4.77557 -4.75
      vertex -3.0453 4.27652 -4.75
    endloop
  endfacet
  facet normal -2.52444e-06 4.37247e-06 1
    outer loop
      vertex -3.0453 4.27652 4.75
      vertex -1.23773 5.10201 4.75
      vertex -2.18093 4.77557 4.75
    endloop
  endfacet
  facet normal 0.928368 0.371662 0
    outer loop
      vertex 5.03734 1.4791 4.75
      vertex 4.66639 2.40569 -4.75
      vertex 4.66639 2.40569 4.75
    endloop
  endfacet
  facet normal 0.928368 0.371662 0
    outer loop
      vertex 4.66639 2.40569 -4.75
      vertex 5.03734 1.4791 4.75
      vertex 5.03734 1.4791 -4.75
    endloop
  endfacet
  facet normal 2.92863e-06 4.11269e-06 -1
    outer loop
      vertex 2.625 4.54663 -4.75
      vertex 3.43802 3.96768 -4.75
      vertex 1.71711 4.96125 -4.75
    endloop
  endfacet
  facet normal 4.9511e-07 -1.98212e-07 -1
    outer loop
      vertex 5.03734 -1.4791 -4.75
      vertex 4.66639 -2.40569 -4.75
      vertex 1.71711 -4.96125 -4.75
    endloop
  endfacet
  facet normal -0.888835 -0.458227 0
    outer loop
      vertex -4.41658 -2.83836 -4.75
      vertex -4.87393 -1.95123 4.75
      vertex -4.87393 -1.95123 -4.75
    endloop
  endfacet
  facet normal -0.888835 -0.458227 0
    outer loop
      vertex -4.87393 -1.95123 4.75
      vertex -4.41658 -2.83836 -4.75
      vertex -4.41658 -2.83836 4.75
    endloop
  endfacet
  facet normal -0.327069 -0.945001 0
    outer loop
      vertex -2.18093 -4.77557 -4.75
      vertex -1.23773 -5.10201 4.75
      vertex -2.18093 -4.77557 4.75
    endloop
  endfacet
  facet normal -0.327069 -0.945001 -0
    outer loop
      vertex -1.23773 -5.10201 4.75
      vertex -2.18093 -4.77557 -4.75
      vertex -1.23773 -5.10201 -4.75
    endloop
  endfacet
  facet normal -1.11554e-06 -1.2874e-06 1
    outer loop
      vertex -3.0453 -4.27652 4.75
      vertex -1.23773 -5.10201 4.75
      vertex -3.7996 -3.62291 4.75
    endloop
  endfacet
  facet normal -0.654861 -0.755749 0
    outer loop
      vertex -3.7996 -3.62291 -4.75
      vertex -3.0453 -4.27652 4.75
      vertex -3.7996 -3.62291 4.75
    endloop
  endfacet
  facet normal -0.654861 -0.755749 -0
    outer loop
      vertex -3.0453 -4.27652 4.75
      vertex -3.7996 -3.62291 -4.75
      vertex -3.0453 -4.27652 -4.75
    endloop
  endfacet
  facet normal 0.235758 -0.971812 0
    outer loop
      vertex 0.747152 -5.19656 -4.75
      vertex 1.71711 -4.96125 4.75
      vertex 0.747152 -5.19656 4.75
    endloop
  endfacet
  facet normal 0.235758 -0.971812 0
    outer loop
      vertex 1.71711 -4.96125 4.75
      vertex 0.747152 -5.19656 -4.75
      vertex 1.71711 -4.96125 -4.75
    endloop
  endfacet
  facet normal -0.888835 0.458227 0
    outer loop
      vertex -4.87393 1.95123 -4.75
      vertex -4.41658 2.83836 4.75
      vertex -4.41658 2.83836 -4.75
    endloop
  endfacet
  facet normal -0.888835 0.458227 0
    outer loop
      vertex -4.41658 2.83836 4.75
      vertex -4.87393 1.95123 -4.75
      vertex -4.87393 1.95123 4.75
    endloop
  endfacet
  facet normal 4.9511e-07 1.98212e-07 -1
    outer loop
      vertex 4.66639 2.40569 -4.75
      vertex 5.03734 1.4791 -4.75
      vertex 1.71711 4.96125 -4.75
    endloop
  endfacet
  facet normal 7.29711e-07 4.68956e-07 -1
    outer loop
      vertex 4.12678 3.24533 -4.75
      vertex 4.66639 2.40569 -4.75
      vertex 1.71711 4.96125 -4.75
    endloop
  endfacet
  facet normal 2.92862e-06 -4.11267e-06 -1
    outer loop
      vertex 3.43802 -3.96768 -4.75
      vertex 2.625 -4.54663 -4.75
      vertex 1.71711 -4.96125 -4.75
    endloop
  endfacet
  facet normal 0.723734 -0.690079 0
    outer loop
      vertex 3.43802 -3.96768 4.75
      vertex 4.12678 -3.24533 -4.75
      vertex 4.12678 -3.24533 4.75
    endloop
  endfacet
  facet normal 0.723734 -0.690079 0
    outer loop
      vertex 4.12678 -3.24533 -4.75
      vertex 3.43802 -3.96768 4.75
      vertex 3.43802 -3.96768 -4.75
    endloop
  endfacet
  facet normal 7.29711e-07 -4.68956e-07 -1
    outer loop
      vertex 4.66639 -2.40569 -4.75
      vertex 4.12678 -3.24533 -4.75
      vertex 1.71711 -4.96125 -4.75
    endloop
  endfacet
  facet normal 0.928368 -0.371662 0
    outer loop
      vertex 4.66639 -2.40569 4.75
      vertex 5.03734 -1.4791 -4.75
      vertex 5.03734 -1.4791 4.75
    endloop
  endfacet
  facet normal 0.928368 -0.371662 0
    outer loop
      vertex 5.03734 -1.4791 -4.75
      vertex 4.66639 -2.40569 4.75
      vertex 4.66639 -2.40569 -4.75
    endloop
  endfacet
  facet normal 0.981929 -0.189251 0
    outer loop
      vertex 5.03734 -1.4791 4.75
      vertex 5.22623 -0.499043 -4.75
      vertex 5.22623 -0.499043 4.75
    endloop
  endfacet
  facet normal 0.981929 -0.189251 0
    outer loop
      vertex 5.22623 -0.499043 -4.75
      vertex 5.03734 -1.4791 4.75
      vertex 5.03734 -1.4791 -4.75
    endloop
  endfacet
  facet normal -3.51774e-07 -1.0329e-07 1
    outer loop
      vertex -4.87393 -1.95123 4.75
      vertex -1.23773 -5.10201 4.75
      vertex -5.15513 -0.993568 4.75
    endloop
  endfacet
  facet normal -2.7054e-07 -2.58334e-08 1
    outer loop
      vertex -5.15513 -0.993568 4.75
      vertex -1.23773 -5.10201 4.75
      vertex -5.25 0 4.75
    endloop
  endfacet
  facet normal -6.81831e-07 -5.36197e-07 1
    outer loop
      vertex -3.7996 -3.62291 4.75
      vertex -1.23773 -5.10201 4.75
      vertex -4.41658 -2.83836 4.75
    endloop
  endfacet
  facet normal -0.499999 -0.866026 0
    outer loop
      vertex -3.0453 -4.27652 -4.75
      vertex -2.18093 -4.77557 4.75
      vertex -3.0453 -4.27652 4.75
    endloop
  endfacet
  facet normal -0.499999 -0.866026 -0
    outer loop
      vertex -2.18093 -4.77557 4.75
      vertex -3.0453 -4.27652 -4.75
      vertex -2.18093 -4.77557 -4.75
    endloop
  endfacet
  facet normal 0.415415 -0.909632 0
    outer loop
      vertex 1.71711 -4.96125 4.75
      vertex 2.625 -4.54663 -4.75
      vertex 2.625 -4.54663 4.75
    endloop
  endfacet
  facet normal 0.415415 -0.909632 0
    outer loop
      vertex 2.625 -4.54663 -4.75
      vertex 1.71711 -4.96125 4.75
      vertex 1.71711 -4.96125 -4.75
    endloop
  endfacet
  facet normal 0.580057 -0.814576 0
    outer loop
      vertex 2.625 -4.54663 -4.75
      vertex 3.43802 -3.96768 4.75
      vertex 2.625 -4.54663 4.75
    endloop
  endfacet
  facet normal 0.580057 -0.814576 0
    outer loop
      vertex 3.43802 -3.96768 4.75
      vertex 2.625 -4.54663 -4.75
      vertex 3.43802 -3.96768 -4.75
    endloop
  endfacet
  facet normal 0.986361 -0.164595 0
    outer loop
      vertex -2.83745 0.974098 4.75
      vertex -2.90328 0.579588 -4.75
      vertex -2.83745 0.974098 -4.75
    endloop
  endfacet
  facet normal 0.986361 -0.164595 -3.605e-09
    outer loop
      vertex -2.90328 0.579588 -4.75
      vertex -2.83745 0.974098 4.75
      vertex -2.93417 0.39451 4.75
    endloop
  endfacet
  facet normal 0.986361 -0.164594 0
    outer loop
      vertex -3 0 -4.75
      vertex -2.93417 0.39451 4.75
      vertex -3 0 4.75
    endloop
  endfacet
  facet normal 0.986361 -0.164595 1.22045e-08
    outer loop
      vertex -2.93417 0.39451 4.75
      vertex -3 0 -4.75
      vertex -2.90328 0.579588 -4.75
    endloop
  endfacet
  facet normal -1 0 0
    outer loop
      vertex 2.95908 -0.493783 -4.75
      vertex 2.95908 0.493783 4.75
      vertex 2.95908 0.493783 -4.75
    endloop
  endfacet
  facet normal -1 -0 0
    outer loop
      vertex 2.95908 0.493783 4.75
      vertex 2.95908 -0.493783 -4.75
      vertex 2.95908 -0.493783 4.75
    endloop
  endfacet
  facet normal 0.879474 -0.475947 0
    outer loop
      vertex -2.83745 0.974098 4.75
      vertex -2.36742 1.84264 -4.75
      vertex -2.36742 1.84264 4.75
    endloop
  endfacet
  facet normal 0.879474 -0.475947 0
    outer loop
      vertex -2.36742 1.84264 -4.75
      vertex -2.83745 0.974098 4.75
      vertex -2.83745 0.974098 -4.75
    endloop
  endfacet
  facet normal 0.401695 -0.915774 0
    outer loop
      vertex -1.64084 2.5115 -4.75
      vertex -1.23773 2.68832 4.75
      vertex -1.64084 2.5115 4.75
    endloop
  endfacet
  facet normal 0.401695 -0.915774 -7.45402e-09
    outer loop
      vertex -0.736456 2.9082 -4.75
      vertex -1.23773 2.68832 4.75
      vertex -1.64084 2.5115 -4.75
    endloop
  endfacet
  facet normal 0.401695 -0.915774 0
    outer loop
      vertex -1.23773 2.68832 4.75
      vertex -0.736456 2.9082 -4.75
      vertex -0.736456 2.9082 4.75
    endloop
  endfacet
  facet normal -0.78914 -0.614213 0
    outer loop
      vertex 2.63842 1.42784 -4.75
      vertex 2.03184 2.20717 4.75
      vertex 2.03184 2.20717 -4.75
    endloop
  endfacet
  facet normal -0.78914 -0.614213 0
    outer loop
      vertex 2.03184 2.20717 4.75
      vertex 2.63842 1.42784 -4.75
      vertex 2.63842 1.42784 4.75
    endloop
  endfacet
  facet normal -0.945817 -0.324699 0
    outer loop
      vertex 2.95908 0.493783 -4.75
      vertex 2.63842 1.42784 4.75
      vertex 2.63842 1.42784 -4.75
    endloop
  endfacet
  facet normal -0.945817 -0.324699 0
    outer loop
      vertex 2.63842 1.42784 4.75
      vertex 2.95908 0.493783 -4.75
      vertex 2.95908 0.493783 4.75
    endloop
  endfacet
  facet normal -0.546948 -0.837167 0
    outer loop
      vertex 1.71711 2.4128 -4.75
      vertex 1.20509 2.74732 4.75
      vertex 1.20509 2.74732 -4.75
    endloop
  endfacet
  facet normal -0.546948 -0.837167 -1.77701e-09
    outer loop
      vertex 1.20509 2.74732 4.75
      vertex 1.71711 2.4128 -4.75
      vertex 2.03184 2.20717 4.75
    endloop
  endfacet
  facet normal -0.546948 -0.837167 -0
    outer loop
      vertex 2.03184 2.20717 4.75
      vertex 1.71711 2.4128 -4.75
      vertex 2.03184 2.20717 -4.75
    endloop
  endfacet
  facet normal 0.677282 0.735724 -0
    outer loop
      vertex -1.64084 -2.5115 -4.75
      vertex -2.36742 -1.84264 4.75
      vertex -1.64084 -2.5115 4.75
    endloop
  endfacet
  facet normal 0.677282 0.735724 0
    outer loop
      vertex -2.36742 -1.84264 4.75
      vertex -1.64084 -2.5115 -4.75
      vertex -2.36742 -1.84264 -4.75
    endloop
  endfacet
  facet normal 0.677282 -0.735724 0
    outer loop
      vertex -2.36742 1.84264 -4.75
      vertex -1.64084 2.5115 4.75
      vertex -2.36742 1.84264 4.75
    endloop
  endfacet
  facet normal 0.677282 -0.735724 0
    outer loop
      vertex -1.64084 2.5115 4.75
      vertex -2.36742 1.84264 -4.75
      vertex -1.64084 2.5115 -4.75
    endloop
  endfacet
  facet normal 0.0825792 -0.996585 0
    outer loop
      vertex -0.736456 2.9082 -4.75
      vertex 0.247738 2.98975 4.75
      vertex -0.736456 2.9082 4.75
    endloop
  endfacet
  facet normal 0.0825792 -0.996585 0
    outer loop
      vertex 0.247738 2.98975 4.75
      vertex -0.736456 2.9082 -4.75
      vertex 0.247738 2.98975 -4.75
    endloop
  endfacet
  facet normal -0.245486 -0.9694 0
    outer loop
      vertex 0.247738 2.98975 -4.75
      vertex 1.20509 2.74732 4.75
      vertex 0.247738 2.98975 4.75
    endloop
  endfacet
  facet normal -0.245486 -0.9694 -0
    outer loop
      vertex 1.20509 2.74732 4.75
      vertex 0.247738 2.98975 -4.75
      vertex 1.20509 2.74732 -4.75
    endloop
  endfacet
  facet normal -0.245486 0.9694 0
    outer loop
      vertex 1.20509 -2.74732 -4.75
      vertex 0.247738 -2.98975 4.75
      vertex 1.20509 -2.74732 4.75
    endloop
  endfacet
  facet normal -0.245486 0.9694 0
    outer loop
      vertex 0.247738 -2.98975 4.75
      vertex 1.20509 -2.74732 -4.75
      vertex 0.247738 -2.98975 -4.75
    endloop
  endfacet
  facet normal 0.879474 0.475947 0
    outer loop
      vertex -2.36742 -1.84264 4.75
      vertex -2.83745 -0.974098 -4.75
      vertex -2.83745 -0.974098 4.75
    endloop
  endfacet
  facet normal 0.879474 0.475947 0
    outer loop
      vertex -2.83745 -0.974098 -4.75
      vertex -2.36742 -1.84264 4.75
      vertex -2.36742 -1.84264 -4.75
    endloop
  endfacet
  facet normal -0.546948 0.837167 0
    outer loop
      vertex 1.71711 -2.4128 -4.75
      vertex 2.03184 -2.20717 4.75
      vertex 2.03184 -2.20717 -4.75
    endloop
  endfacet
  facet normal -0.546948 0.837167 -1.77701e-09
    outer loop
      vertex 2.03184 -2.20717 4.75
      vertex 1.71711 -2.4128 -4.75
      vertex 1.20509 -2.74732 4.75
    endloop
  endfacet
  facet normal -0.546948 0.837167 0
    outer loop
      vertex 1.20509 -2.74732 4.75
      vertex 1.71711 -2.4128 -4.75
      vertex 1.20509 -2.74732 -4.75
    endloop
  endfacet
  facet normal -0.78914 0.614213 0
    outer loop
      vertex 2.03184 -2.20717 -4.75
      vertex 2.63842 -1.42784 4.75
      vertex 2.63842 -1.42784 -4.75
    endloop
  endfacet
  facet normal -0.78914 0.614213 0
    outer loop
      vertex 2.63842 -1.42784 4.75
      vertex 2.03184 -2.20717 -4.75
      vertex 2.03184 -2.20717 4.75
    endloop
  endfacet
  facet normal -0.945817 0.324699 0
    outer loop
      vertex 2.63842 -1.42784 -4.75
      vertex 2.95908 -0.493783 4.75
      vertex 2.95908 -0.493783 -4.75
    endloop
  endfacet
  facet normal -0.945817 0.324699 0
    outer loop
      vertex 2.95908 -0.493783 4.75
      vertex 2.63842 -1.42784 -4.75
      vertex 2.63842 -1.42784 4.75
    endloop
  endfacet
  facet normal 0.401695 0.915774 -0
    outer loop
      vertex -0.736456 -2.9082 -4.75
      vertex -1.23773 -2.68832 4.75
      vertex -0.736456 -2.9082 4.75
    endloop
  endfacet
  facet normal 0.401695 0.915774 -7.45402e-09
    outer loop
      vertex -1.64084 -2.5115 -4.75
      vertex -1.23773 -2.68832 4.75
      vertex -0.736456 -2.9082 -4.75
    endloop
  endfacet
  facet normal 0.401695 0.915774 0
    outer loop
      vertex -1.23773 -2.68832 4.75
      vertex -1.64084 -2.5115 -4.75
      vertex -1.64084 -2.5115 4.75
    endloop
  endfacet
  facet normal 0.0825792 0.996585 -0
    outer loop
      vertex 0.247738 -2.98975 -4.75
      vertex -0.736456 -2.9082 4.75
      vertex 0.247738 -2.98975 4.75
    endloop
  endfacet
  facet normal 0.0825792 0.996585 0
    outer loop
      vertex -0.736456 -2.9082 4.75
      vertex 0.247738 -2.98975 -4.75
      vertex -0.736456 -2.9082 -4.75
    endloop
  endfacet
  facet normal 0.986361 0.164595 -3.605e-09
    outer loop
      vertex -2.83745 -0.974098 4.75
      vertex -2.90328 -0.579588 -4.75
      vertex -2.93417 -0.39451 4.75
    endloop
  endfacet
  facet normal 0.986361 0.164595 0
    outer loop
      vertex -2.90328 -0.579588 -4.75
      vertex -2.83745 -0.974098 4.75
      vertex -2.83745 -0.974098 -4.75
    endloop
  endfacet
  facet normal 0.986361 0.164594 0
    outer loop
      vertex -2.93417 -0.39451 4.75
      vertex -3 0 -4.75
      vertex -3 0 4.75
    endloop
  endfacet
  facet normal 0.986361 0.164595 1.22045e-08
    outer loop
      vertex -3 0 -4.75
      vertex -2.93417 -0.39451 4.75
      vertex -2.90328 -0.579588 -4.75
    endloop
  endfacet
  facet normal 7.29711e-07 -4.68956e-07 -1
    outer loop
      vertex 5.66639 12.5943 -4.75
      vertex 5.12678 11.7547 -4.75
      vertex 2.71711 10.0387 -4.75
    endloop
  endfacet
  facet normal -1.11553e-06 1.28739e-06 1
    outer loop
      vertex -4.7996 18.6229 4.75
      vertex -2.23773 20.102 4.75
      vertex -4.0453 19.2765 4.75
    endloop
  endfacet
  facet normal -0.142314 0.989822 0
    outer loop
      vertex -1.2498 20.2441 -4.75
      vertex -2.23773 20.102 4.75
      vertex -1.2498 20.2441 4.75
    endloop
  endfacet
  facet normal -0.142314 0.989822 0
    outer loop
      vertex -2.23773 20.102 4.75
      vertex -1.2498 20.2441 -4.75
      vertex -2.23773 20.102 -4.75
    endloop
  endfacet
  facet normal -0.995472 -0.0950561 0
    outer loop
      vertex -6.15513 14.0064 -4.75
      vertex -6.15513 14.0064 4.75
      vertex -6.25 15 4.75
    endloop
  endfacet
  facet normal -4.74027e-07 -2.44378e-07 1
    outer loop
      vertex -5.41658 12.1616 4.75
      vertex -2.23773 9.89799 4.75
      vertex -5.87393 13.0488 4.75
    endloop
  endfacet
  facet normal -0.786053 -0.618159 0
    outer loop
      vertex -4.7996 11.3771 -4.75
      vertex -5.41658 12.1616 4.75
      vertex -5.41658 12.1616 -4.75
    endloop
  endfacet
  facet normal -0.786053 -0.618159 0
    outer loop
      vertex -5.41658 12.1616 4.75
      vertex -4.7996 11.3771 -4.75
      vertex -4.7996 11.3771 4.75
    endloop
  endfacet
  facet normal 0.047582 0.998867 -0
    outer loop
      vertex 1.74715 20.1966 -4.75
      vertex 0.750195 20.2441 4.75
      vertex 1.74715 20.1966 4.75
    endloop
  endfacet
  facet normal 0.047582 0.998867 0
    outer loop
      vertex 0.750195 20.2441 4.75
      vertex 1.74715 20.1966 -4.75
      vertex 0.750195 20.2441 -4.75
    endloop
  endfacet
  facet normal 0.235758 -0.971812 0
    outer loop
      vertex 1.74715 9.80344 -4.75
      vertex 2.71711 10.0387 4.75
      vertex 1.74715 9.80344 4.75
    endloop
  endfacet
  facet normal 0.235758 -0.971812 0
    outer loop
      vertex 2.71711 10.0387 4.75
      vertex 1.74715 9.80344 -4.75
      vertex 2.71711 10.0387 -4.75
    endloop
  endfacet
  facet normal -0.32707 0.945 0
    outer loop
      vertex -2.23773 20.102 -4.75
      vertex -3.18093 19.7756 4.75
      vertex -2.23773 20.102 4.75
    endloop
  endfacet
  facet normal -0.32707 0.945 0
    outer loop
      vertex -3.18093 19.7756 4.75
      vertex -2.23773 20.102 -4.75
      vertex -3.18093 19.7756 -4.75
    endloop
  endfacet
  facet normal -0.959493 0.281733 0
    outer loop
      vertex -6.15513 15.9936 -4.75
      vertex -5.87393 16.9512 4.75
      vertex -5.87393 16.9512 -4.75
    endloop
  endfacet
  facet normal -0.959493 0.281733 0
    outer loop
      vertex -5.87393 16.9512 4.75
      vertex -6.15513 15.9936 -4.75
      vertex -6.15513 15.9936 4.75
    endloop
  endfacet
  facet normal -4.74027e-07 2.44378e-07 1
    outer loop
      vertex -5.87393 16.9512 4.75
      vertex -2.23773 20.102 4.75
      vertex -5.41658 17.8384 4.75
    endloop
  endfacet
  facet normal 0.981929 -0.189251 0
    outer loop
      vertex 6.03734 13.5209 4.75
      vertex 6.22623 14.501 -4.75
      vertex 6.22623 14.501 4.75
    endloop
  endfacet
  facet normal 0.981929 -0.189251 0
    outer loop
      vertex 6.22623 14.501 -4.75
      vertex 6.03734 13.5209 4.75
      vertex 6.03734 13.5209 -4.75
    endloop
  endfacet
  facet normal 0.723734 0.690079 0
    outer loop
      vertex 5.12678 18.2453 4.75
      vertex 4.43802 18.9677 -4.75
      vertex 4.43802 18.9677 4.75
    endloop
  endfacet
  facet normal 0.723734 0.690079 0
    outer loop
      vertex 4.43802 18.9677 -4.75
      vertex 5.12678 18.2453 4.75
      vertex 5.12678 18.2453 -4.75
    endloop
  endfacet
  facet normal 0.723734 -0.690079 0
    outer loop
      vertex 4.43802 11.0323 4.75
      vertex 5.12678 11.7547 -4.75
      vertex 5.12678 11.7547 4.75
    endloop
  endfacet
  facet normal 0.723734 -0.690079 0
    outer loop
      vertex 5.12678 11.7547 -4.75
      vertex 4.43802 11.0323 4.75
      vertex 4.43802 11.0323 -4.75
    endloop
  endfacet
  facet normal -0.654861 -0.755749 0
    outer loop
      vertex -4.7996 11.3771 -4.75
      vertex -4.0453 10.7235 4.75
      vertex -4.7996 11.3771 4.75
    endloop
  endfacet
  facet normal -0.654861 -0.755749 -0
    outer loop
      vertex -4.0453 10.7235 4.75
      vertex -4.7996 11.3771 -4.75
      vertex -4.0453 10.7235 -4.75
    endloop
  endfacet
  facet normal -2.7054e-07 -2.58334e-08 1
    outer loop
      vertex -6.15513 14.0064 4.75
      vertex -2.23773 9.89799 4.75
      vertex -6.25 15 4.75
    endloop
  endfacet
  facet normal -0.499999 0.866026 0
    outer loop
      vertex -3.18093 19.7756 -4.75
      vertex -4.0453 19.2765 4.75
      vertex -3.18093 19.7756 4.75
    endloop
  endfacet
  facet normal -0.499999 0.866026 0
    outer loop
      vertex -4.0453 19.2765 4.75
      vertex -3.18093 19.7756 -4.75
      vertex -4.0453 19.2765 -4.75
    endloop
  endfacet
  facet normal -3.51774e-07 -1.0329e-07 1
    outer loop
      vertex -5.87393 13.0488 4.75
      vertex -2.23773 9.89799 4.75
      vertex -6.15513 14.0064 4.75
    endloop
  endfacet
  facet normal -0.888835 0.458227 0
    outer loop
      vertex -5.87393 16.9512 -4.75
      vertex -5.41658 17.8384 4.75
      vertex -5.41658 17.8384 -4.75
    endloop
  endfacet
  facet normal -0.888835 0.458227 0
    outer loop
      vertex -5.41658 17.8384 4.75
      vertex -5.87393 16.9512 -4.75
      vertex -5.87393 16.9512 4.75
    endloop
  endfacet
  facet normal 0.235758 0.971812 -0
    outer loop
      vertex 2.71711 19.9613 -4.75
      vertex 1.74715 20.1966 4.75
      vertex 2.71711 19.9613 4.75
    endloop
  endfacet
  facet normal 0.235758 0.971812 0
    outer loop
      vertex 1.74715 20.1966 4.75
      vertex 2.71711 19.9613 -4.75
      vertex 1.74715 20.1966 -4.75
    endloop
  endfacet
  facet normal 0 1 -0
    outer loop
      vertex 0.750195 20.2441 -4.75
      vertex -1.2498 20.2441 4.75
      vertex 0.750195 20.2441 4.75
    endloop
  endfacet
  facet normal 0 1 0
    outer loop
      vertex -1.2498 20.2441 4.75
      vertex 0.750195 20.2441 -4.75
      vertex -1.2498 20.2441 -4.75
    endloop
  endfacet
  facet normal 0.841254 0.540641 0
    outer loop
      vertex 5.66639 17.4057 4.75
      vertex 5.12678 18.2453 -4.75
      vertex 5.12678 18.2453 4.75
    endloop
  endfacet
  facet normal 0.841254 0.540641 0
    outer loop
      vertex 5.12678 18.2453 -4.75
      vertex 5.66639 17.4057 4.75
      vertex 5.66639 17.4057 -4.75
    endloop
  endfacet
  facet normal 3.59999e-07 6.93842e-08 -1
    outer loop
      vertex 6.03734 16.4791 -4.75
      vertex 6.22623 15.499 -4.75
      vertex 2.71711 19.9613 -4.75
    endloop
  endfacet
  facet normal 0 -1 0
    outer loop
      vertex -1.2498 9.75595 -4.75
      vertex 0.750195 9.75595 4.75
      vertex -1.2498 9.75595 4.75
    endloop
  endfacet
  facet normal 0 -1 -0
    outer loop
      vertex 0.750195 9.75595 4.75
      vertex -1.2498 9.75595 -4.75
      vertex 0.750195 9.75595 -4.75
    endloop
  endfacet
  facet normal 2.92862e-06 -4.11267e-06 -1
    outer loop
      vertex 4.43802 11.0323 -4.75
      vertex 3.625 10.4534 -4.75
      vertex 2.71711 10.0387 -4.75
    endloop
  endfacet
  facet normal 3.59999e-07 -6.93842e-08 -1
    outer loop
      vertex 6.22623 14.501 -4.75
      vertex 6.03734 13.5209 -4.75
      vertex 2.71711 10.0387 -4.75
    endloop
  endfacet
  facet normal -2.52446e-06 4.37251e-06 1
    outer loop
      vertex -4.0453 19.2765 4.75
      vertex -2.23773 20.102 4.75
      vertex -3.18093 19.7756 4.75
    endloop
  endfacet
  facet normal -1.11554e-06 -1.2874e-06 1
    outer loop
      vertex -4.0453 10.7235 4.75
      vertex -2.23773 9.89799 4.75
      vertex -4.7996 11.3771 4.75
    endloop
  endfacet
  facet normal -6.81831e-07 -5.36197e-07 1
    outer loop
      vertex -4.7996 11.3771 4.75
      vertex -2.23773 9.89799 4.75
      vertex -5.41658 12.1616 4.75
    endloop
  endfacet
  facet normal -2.52444e-06 -4.37247e-06 1
    outer loop
      vertex -3.18093 10.2244 4.75
      vertex -2.23773 9.89799 4.75
      vertex -4.0453 10.7235 4.75
    endloop
  endfacet
  facet normal -6.81832e-07 5.36198e-07 1
    outer loop
      vertex -5.41658 17.8384 4.75
      vertex -2.23773 20.102 4.75
      vertex -4.7996 18.6229 4.75
    endloop
  endfacet
  facet normal -0.786053 0.618159 0
    outer loop
      vertex -5.41658 17.8384 -4.75
      vertex -4.7996 18.6229 4.75
      vertex -4.7996 18.6229 -4.75
    endloop
  endfacet
  facet normal -0.786053 0.618159 0
    outer loop
      vertex -4.7996 18.6229 4.75
      vertex -5.41658 17.8384 -4.75
      vertex -5.41658 17.8384 4.75
    endloop
  endfacet
  facet normal -0.654861 0.755749 0
    outer loop
      vertex -4.0453 19.2765 -4.75
      vertex -4.7996 18.6229 4.75
      vertex -4.0453 19.2765 4.75
    endloop
  endfacet
  facet normal -0.654861 0.755749 0
    outer loop
      vertex -4.7996 18.6229 4.75
      vertex -4.0453 19.2765 -4.75
      vertex -4.7996 18.6229 -4.75
    endloop
  endfacet
  facet normal -0.959493 -0.281733 0
    outer loop
      vertex -5.87393 13.0488 -4.75
      vertex -6.15513 14.0064 4.75
      vertex -6.15513 14.0064 -4.75
    endloop
  endfacet
  facet normal -0.959493 -0.281733 0
    outer loop
      vertex -6.15513 14.0064 4.75
      vertex -5.87393 13.0488 -4.75
      vertex -5.87393 13.0488 4.75
    endloop
  endfacet
  facet normal -0.888835 -0.458227 0
    outer loop
      vertex -5.41658 12.1616 -4.75
      vertex -5.87393 13.0488 4.75
      vertex -5.87393 13.0488 -4.75
    endloop
  endfacet
  facet normal -0.888835 -0.458227 0
    outer loop
      vertex -5.87393 13.0488 4.75
      vertex -5.41658 12.1616 -4.75
      vertex -5.41658 12.1616 4.75
    endloop
  endfacet
  facet normal 0 0 1
    outer loop
      vertex -2.23773 20.102 4.75
      vertex -2.64084 17.5115 4.75
      vertex -2.23773 17.6883 4.75
    endloop
  endfacet
  facet normal -7.6601e-07 1.19199e-07 1
    outer loop
      vertex -2.23773 20.102 4.75
      vertex -3.36742 16.8426 4.75
      vertex -2.64084 17.5115 4.75
    endloop
  endfacet
  facet normal -9.23668e-08 -1.14283e-07 1
    outer loop
      vertex -6.25 15 4.75
      vertex -3.36742 16.8426 4.75
      vertex -2.23773 20.102 4.75
    endloop
  endfacet
  facet normal -2.11928e-07 3.53644e-08 1
    outer loop
      vertex -3.93417 15.3945 4.75
      vertex -6.25 15 4.75
      vertex -4 15 4.75
    endloop
  endfacet
  facet normal -2.11928e-07 3.53646e-08 1
    outer loop
      vertex -3.83745 15.9741 4.75
      vertex -6.25 15 4.75
      vertex -3.93417 15.3945 4.75
    endloop
  endfacet
  facet normal -2.52911e-07 1.36869e-07 1
    outer loop
      vertex -3.36742 16.8426 4.75
      vertex -6.25 15 4.75
      vertex -3.83745 15.9741 4.75
    endloop
  endfacet
  facet normal 0 0 1
    outer loop
      vertex -2.64084 12.4885 4.75
      vertex -2.23773 9.89799 4.75
      vertex -2.23773 12.3117 4.75
    endloop
  endfacet
  facet normal -7.6601e-07 -1.19199e-07 1
    outer loop
      vertex -3.36742 13.1574 4.75
      vertex -2.23773 9.89799 4.75
      vertex -2.64084 12.4885 4.75
    endloop
  endfacet
  facet normal -2.52911e-07 -1.36869e-07 1
    outer loop
      vertex -6.25 15 4.75
      vertex -3.36742 13.1574 4.75
      vertex -3.83745 14.0259 4.75
    endloop
  endfacet
  facet normal -9.23668e-08 1.14283e-07 1
    outer loop
      vertex -3.36742 13.1574 4.75
      vertex -6.25 15 4.75
      vertex -2.23773 9.89799 4.75
    endloop
  endfacet
  facet normal -2.11928e-07 -3.53646e-08 1
    outer loop
      vertex -3.93417 14.6055 4.75
      vertex -6.25 15 4.75
      vertex -3.83745 14.0259 4.75
    endloop
  endfacet
  facet normal -2.11928e-07 -3.53644e-08 1
    outer loop
      vertex -6.25 15 4.75
      vertex -3.93417 14.6055 4.75
      vertex -4 15 4.75
    endloop
  endfacet
  facet normal -0.995472 0.0950561 0
    outer loop
      vertex -6.15513 15.9936 -4.75
      vertex -6.25 15 4.75
      vertex -6.15513 15.9936 4.75
    endloop
  endfacet
  facet normal -0.995472 0.0950552 -9.99322e-08
    outer loop
      vertex -6.25 15 -4.75
      vertex -6.25 15 4.75
      vertex -6.15513 15.9936 -4.75
    endloop
  endfacet
  facet normal 0.580056 0.814577 -0
    outer loop
      vertex 4.43802 18.9677 -4.75
      vertex 3.625 19.5466 4.75
      vertex 4.43802 18.9677 4.75
    endloop
  endfacet
  facet normal 0.580056 0.814577 0
    outer loop
      vertex 3.625 19.5466 4.75
      vertex 4.43802 18.9677 -4.75
      vertex 3.625 19.5466 -4.75
    endloop
  endfacet
  facet normal 0.928368 0.371662 0
    outer loop
      vertex 6.03734 16.4791 4.75
      vertex 5.66639 17.4057 -4.75
      vertex 5.66639 17.4057 4.75
    endloop
  endfacet
  facet normal 0.928368 0.371662 0
    outer loop
      vertex 5.66639 17.4057 -4.75
      vertex 6.03734 16.4791 4.75
      vertex 6.03734 16.4791 -4.75
    endloop
  endfacet
  facet normal 1 -0 0
    outer loop
      vertex 6.22623 14.501 4.75
      vertex 6.22623 15.499 -4.75
      vertex 6.22623 15.499 4.75
    endloop
  endfacet
  facet normal 1 0 0
    outer loop
      vertex 6.22623 15.499 -4.75
      vertex 6.22623 14.501 4.75
      vertex 6.22623 14.501 -4.75
    endloop
  endfacet
  facet normal 0.415415 0.909632 -0
    outer loop
      vertex 3.625 19.5466 -4.75
      vertex 2.71711 19.9613 4.75
      vertex 3.625 19.5466 4.75
    endloop
  endfacet
  facet normal 0.415415 0.909632 0
    outer loop
      vertex 2.71711 19.9613 4.75
      vertex 3.625 19.5466 -4.75
      vertex 2.71711 19.9613 -4.75
    endloop
  endfacet
  facet normal -0.142314 -0.989822 0
    outer loop
      vertex -2.23773 9.89799 -4.75
      vertex -1.2498 9.75595 4.75
      vertex -2.23773 9.89799 4.75
    endloop
  endfacet
  facet normal -0.142314 -0.989822 -0
    outer loop
      vertex -1.2498 9.75595 4.75
      vertex -2.23773 9.89799 -4.75
      vertex -1.2498 9.75595 -4.75
    endloop
  endfacet
  facet normal 0 0 1
    outer loop
      vertex 3.95908 15.4938 4.75
      vertex 6.22623 15.499 4.75
      vertex 6.03734 16.4791 4.75
    endloop
  endfacet
  facet normal 0 0 1
    outer loop
      vertex 6.22623 15.499 4.75
      vertex 3.95908 15.4938 4.75
      vertex 6.22623 14.501 4.75
    endloop
  endfacet
  facet normal 0 0 1
    outer loop
      vertex 3.63842 16.4278 4.75
      vertex 6.03734 16.4791 4.75
      vertex 5.66639 17.4057 4.75
    endloop
  endfacet
  facet normal -0 0 1
    outer loop
      vertex 3.95908 14.5062 4.75
      vertex 6.22623 14.501 4.75
      vertex 3.95908 15.4938 4.75
    endloop
  endfacet
  facet normal 0 0 1
    outer loop
      vertex 3.63842 16.4278 4.75
      vertex 5.66639 17.4057 4.75
      vertex 5.12678 18.2453 4.75
    endloop
  endfacet
  facet normal 0 0 1
    outer loop
      vertex 6.22623 14.501 4.75
      vertex 3.95908 14.5062 4.75
      vertex 6.03734 13.5209 4.75
    endloop
  endfacet
  facet normal 0 0 1
    outer loop
      vertex 3.03184 17.2072 4.75
      vertex 5.12678 18.2453 4.75
      vertex 4.43802 18.9677 4.75
    endloop
  endfacet
  facet normal -0 0 1
    outer loop
      vertex 3.63842 13.5722 4.75
      vertex 6.03734 13.5209 4.75
      vertex 3.95908 14.5062 4.75
    endloop
  endfacet
  facet normal 0 0 1
    outer loop
      vertex 6.03734 13.5209 4.75
      vertex 3.63842 13.5722 4.75
      vertex 5.66639 12.5943 4.75
    endloop
  endfacet
  facet normal 0 0 1
    outer loop
      vertex 6.03734 16.4791 4.75
      vertex 3.63842 16.4278 4.75
      vertex 3.95908 15.4938 4.75
    endloop
  endfacet
  facet normal 0 0 1
    outer loop
      vertex 3.03184 17.2072 4.75
      vertex 4.43802 18.9677 4.75
      vertex 3.625 19.5466 4.75
    endloop
  endfacet
  facet normal 0 0 1
    outer loop
      vertex 5.12678 18.2453 4.75
      vertex 3.03184 17.2072 4.75
      vertex 3.63842 16.4278 4.75
    endloop
  endfacet
  facet normal 0 0 1
    outer loop
      vertex 2.20509 17.7473 4.75
      vertex 3.625 19.5466 4.75
      vertex 2.71711 19.9613 4.75
    endloop
  endfacet
  facet normal 0 0 1
    outer loop
      vertex 3.625 19.5466 4.75
      vertex 2.20509 17.7473 4.75
      vertex 3.03184 17.2072 4.75
    endloop
  endfacet
  facet normal 0 0 1
    outer loop
      vertex 1.24774 17.9898 4.75
      vertex 2.71711 19.9613 4.75
      vertex 1.74715 20.1966 4.75
    endloop
  endfacet
  facet normal 0 0 1
    outer loop
      vertex 2.71711 19.9613 4.75
      vertex 1.24774 17.9898 4.75
      vertex 2.20509 17.7473 4.75
    endloop
  endfacet
  facet normal 0 0 1
    outer loop
      vertex 0.750195 20.2441 4.75
      vertex 1.24774 17.9898 4.75
      vertex 1.74715 20.1966 4.75
    endloop
  endfacet
  facet normal 0 0 1
    outer loop
      vertex 0.750195 20.2441 4.75
      vertex -0.752261 17.9898 4.75
      vertex 1.24774 17.9898 4.75
    endloop
  endfacet
  facet normal -0 0 1
    outer loop
      vertex -1.2498 20.2441 4.75
      vertex -0.752261 17.9898 4.75
      vertex 0.750195 20.2441 4.75
    endloop
  endfacet
  facet normal 0 0 1
    outer loop
      vertex -1.2498 20.2441 4.75
      vertex -1.73646 17.9082 4.75
      vertex -0.752261 17.9898 4.75
    endloop
  endfacet
  facet normal -0 0 1
    outer loop
      vertex -2.23773 20.102 4.75
      vertex -1.73646 17.9082 4.75
      vertex -1.2498 20.2441 4.75
    endloop
  endfacet
  facet normal 0 0 1
    outer loop
      vertex -1.73646 17.9082 4.75
      vertex -2.23773 20.102 4.75
      vertex -2.23773 17.6883 4.75
    endloop
  endfacet
  facet normal 0 0 1
    outer loop
      vertex 5.66639 12.5943 4.75
      vertex 3.63842 13.5722 4.75
      vertex 5.12678 11.7547 4.75
    endloop
  endfacet
  facet normal -0 0 1
    outer loop
      vertex 3.03184 12.7928 4.75
      vertex 5.12678 11.7547 4.75
      vertex 3.63842 13.5722 4.75
    endloop
  endfacet
  facet normal 0 0 1
    outer loop
      vertex 5.12678 11.7547 4.75
      vertex 3.03184 12.7928 4.75
      vertex 4.43802 11.0323 4.75
    endloop
  endfacet
  facet normal 0 0 1
    outer loop
      vertex 4.43802 11.0323 4.75
      vertex 3.03184 12.7928 4.75
      vertex 3.625 10.4534 4.75
    endloop
  endfacet
  facet normal -0 0 1
    outer loop
      vertex 2.20509 12.2527 4.75
      vertex 3.625 10.4534 4.75
      vertex 3.03184 12.7928 4.75
    endloop
  endfacet
  facet normal 0 0 1
    outer loop
      vertex 3.625 10.4534 4.75
      vertex 2.20509 12.2527 4.75
      vertex 2.71711 10.0387 4.75
    endloop
  endfacet
  facet normal -0 0 1
    outer loop
      vertex 1.24774 12.0102 4.75
      vertex 2.71711 10.0387 4.75
      vertex 2.20509 12.2527 4.75
    endloop
  endfacet
  facet normal 0 0 1
    outer loop
      vertex 2.71711 10.0387 4.75
      vertex 1.24774 12.0102 4.75
      vertex 1.74715 9.80344 4.75
    endloop
  endfacet
  facet normal 0 0 1
    outer loop
      vertex 1.24774 12.0102 4.75
      vertex 0.750195 9.75595 4.75
      vertex 1.74715 9.80344 4.75
    endloop
  endfacet
  facet normal -0 0 1
    outer loop
      vertex -0.752261 12.0102 4.75
      vertex 0.750195 9.75595 4.75
      vertex 1.24774 12.0102 4.75
    endloop
  endfacet
  facet normal 0 0 1
    outer loop
      vertex -0.752261 12.0102 4.75
      vertex -1.2498 9.75595 4.75
      vertex 0.750195 9.75595 4.75
    endloop
  endfacet
  facet normal 0 0 1
    outer loop
      vertex -1.73646 12.0918 4.75
      vertex -1.2498 9.75595 4.75
      vertex -0.752261 12.0102 4.75
    endloop
  endfacet
  facet normal 0 0 1
    outer loop
      vertex -2.23773 9.89799 4.75
      vertex -1.73646 12.0918 4.75
      vertex -2.23773 12.3117 4.75
    endloop
  endfacet
  facet normal 0 0 1
    outer loop
      vertex -1.73646 12.0918 4.75
      vertex -2.23773 9.89799 4.75
      vertex -1.2498 9.75595 4.75
    endloop
  endfacet
  facet normal -0.327069 -0.945001 0
    outer loop
      vertex -3.18093 10.2244 -4.75
      vertex -2.23773 9.89799 4.75
      vertex -3.18093 10.2244 4.75
    endloop
  endfacet
  facet normal -0.327069 -0.945001 -0
    outer loop
      vertex -2.23773 9.89799 4.75
      vertex -3.18093 10.2244 -4.75
      vertex -2.23773 9.89799 -4.75
    endloop
  endfacet
  facet normal 0.415415 -0.909632 0
    outer loop
      vertex 2.71711 10.0387 4.75
      vertex 3.625 10.4534 -4.75
      vertex 3.625 10.4534 4.75
    endloop
  endfacet
  facet normal 0.415415 -0.909632 0
    outer loop
      vertex 3.625 10.4534 -4.75
      vertex 2.71711 10.0387 4.75
      vertex 2.71711 10.0387 -4.75
    endloop
  endfacet
  facet normal 1.23286e-06 -1.17553e-06 -1
    outer loop
      vertex 5.12678 11.7547 -4.75
      vertex 4.43802 11.0323 -4.75
      vertex 2.71711 10.0387 -4.75
    endloop
  endfacet
  facet normal 0.580057 -0.814576 0
    outer loop
      vertex 3.625 10.4534 -4.75
      vertex 4.43802 11.0323 4.75
      vertex 3.625 10.4534 4.75
    endloop
  endfacet
  facet normal 0.580057 -0.814576 0
    outer loop
      vertex 4.43802 11.0323 4.75
      vertex 3.625 10.4534 -4.75
      vertex 4.43802 11.0323 -4.75
    endloop
  endfacet
  facet normal 0.841254 -0.54064 0
    outer loop
      vertex 5.12678 11.7547 4.75
      vertex 5.66639 12.5943 -4.75
      vertex 5.66639 12.5943 4.75
    endloop
  endfacet
  facet normal 0.841254 -0.54064 0
    outer loop
      vertex 5.66639 12.5943 -4.75
      vertex 5.12678 11.7547 4.75
      vertex 5.12678 11.7547 -4.75
    endloop
  endfacet
  facet normal -2.7054e-07 2.58334e-08 1
    outer loop
      vertex -6.25 15 4.75
      vertex -2.23773 20.102 4.75
      vertex -6.15513 15.9936 4.75
    endloop
  endfacet
  facet normal -3.51774e-07 1.0329e-07 1
    outer loop
      vertex -6.15513 15.9936 4.75
      vertex -2.23773 20.102 4.75
      vertex -5.87393 16.9512 4.75
    endloop
  endfacet
  facet normal -0.995472 -0.0950552 -9.99322e-08
    outer loop
      vertex -6.15513 14.0064 -4.75
      vertex -6.25 15 4.75
      vertex -6.25 15 -4.75
    endloop
  endfacet
  facet normal 2.10325e-07 0 -1
    outer loop
      vertex 6.22623 14.501 -4.75
      vertex 3.95908 14.5062 -4.75
      vertex 6.22623 15.499 -4.75
    endloop
  endfacet
  facet normal 2.10158e-07 -7.21471e-08 -1
    outer loop
      vertex 6.22623 14.501 -4.75
      vertex 3.63842 13.5722 -4.75
      vertex 3.95908 14.5062 -4.75
    endloop
  endfacet
  facet normal -4.90397e-08 6.50025e-07 -1
    outer loop
      vertex 6.22623 14.501 -4.75
      vertex 3.03184 12.7928 -4.75
      vertex 3.63842 13.5722 -4.75
    endloop
  endfacet
  facet normal 3.17979e-07 -3.63388e-08 -1
    outer loop
      vertex 2.71711 10.0387 -4.75
      vertex 3.03184 12.7928 -4.75
      vertex 6.22623 14.501 -4.75
    endloop
  endfacet
  facet normal 0 0 -1
    outer loop
      vertex 3.03184 12.7928 -4.75
      vertex 2.71711 10.0387 -4.75
      vertex 2.71711 12.5872 -4.75
    endloop
  endfacet
  facet normal 2.10325e-07 0 -1
    outer loop
      vertex 3.95908 15.4938 -4.75
      vertex 6.22623 15.499 -4.75
      vertex 3.95908 14.5062 -4.75
    endloop
  endfacet
  facet normal 2.10158e-07 7.21472e-08 -1
    outer loop
      vertex 3.63842 16.4278 -4.75
      vertex 6.22623 15.499 -4.75
      vertex 3.95908 15.4938 -4.75
    endloop
  endfacet
  facet normal -4.90386e-08 -6.50022e-07 -1
    outer loop
      vertex 3.03184 17.2072 -4.75
      vertex 6.22623 15.499 -4.75
      vertex 3.63842 16.4278 -4.75
    endloop
  endfacet
  facet normal 0 0 -1
    outer loop
      vertex 2.71711 19.9613 -4.75
      vertex 3.03184 17.2072 -4.75
      vertex 2.71711 17.4128 -4.75
    endloop
  endfacet
  facet normal 3.17979e-07 3.63388e-08 -1
    outer loop
      vertex 3.03184 17.2072 -4.75
      vertex 2.71711 19.9613 -4.75
      vertex 6.22623 15.499 -4.75
    endloop
  endfacet
  facet normal 2.92864e-06 4.11271e-06 -1
    outer loop
      vertex 3.625 19.5466 -4.75
      vertex 4.43802 18.9677 -4.75
      vertex 2.71711 19.9613 -4.75
    endloop
  endfacet
  facet normal 0.981929 0.189251 0
    outer loop
      vertex 6.22623 15.499 4.75
      vertex 6.03734 16.4791 -4.75
      vertex 6.03734 16.4791 4.75
    endloop
  endfacet
  facet normal 0.981929 0.189251 0
    outer loop
      vertex 6.03734 16.4791 -4.75
      vertex 6.22623 15.499 4.75
      vertex 6.22623 15.499 -4.75
    endloop
  endfacet
  facet normal 0.047582 -0.998867 0
    outer loop
      vertex 0.750195 9.75595 -4.75
      vertex 1.74715 9.80344 4.75
      vertex 0.750195 9.75595 4.75
    endloop
  endfacet
  facet normal 0.047582 -0.998867 0
    outer loop
      vertex 1.74715 9.80344 4.75
      vertex 0.750195 9.75595 -4.75
      vertex 1.74715 9.80344 -4.75
    endloop
  endfacet
  facet normal -0.499999 -0.866026 0
    outer loop
      vertex -4.0453 10.7235 -4.75
      vertex -3.18093 10.2244 4.75
      vertex -4.0453 10.7235 4.75
    endloop
  endfacet
  facet normal -0.499999 -0.866026 -0
    outer loop
      vertex -3.18093 10.2244 4.75
      vertex -4.0453 10.7235 -4.75
      vertex -3.18093 10.2244 -4.75
    endloop
  endfacet
  facet normal 0.928368 -0.371662 0
    outer loop
      vertex 5.66639 12.5943 4.75
      vertex 6.03734 13.5209 -4.75
      vertex 6.03734 13.5209 4.75
    endloop
  endfacet
  facet normal 0.928368 -0.371662 0
    outer loop
      vertex 6.03734 13.5209 -4.75
      vertex 5.66639 12.5943 4.75
      vertex 5.66639 12.5943 -4.75
    endloop
  endfacet
  facet normal 4.9511e-07 1.98212e-07 -1
    outer loop
      vertex 5.66639 17.4057 -4.75
      vertex 6.03734 16.4791 -4.75
      vertex 2.71711 19.9613 -4.75
    endloop
  endfacet
  facet normal 0 0 -1
    outer loop
      vertex 2.71711 10.0387 -4.75
      vertex 2.20509 12.2527 -4.75
      vertex 2.71711 12.5872 -4.75
    endloop
  endfacet
  facet normal 0 0 -1
    outer loop
      vertex 1.24774 12.0102 -4.75
      vertex 2.71711 10.0387 -4.75
      vertex 1.74715 9.80344 -4.75
    endloop
  endfacet
  facet normal 0 0 -1
    outer loop
      vertex 2.71711 10.0387 -4.75
      vertex 1.24774 12.0102 -4.75
      vertex 2.20509 12.2527 -4.75
    endloop
  endfacet
  facet normal 0 0 -1
    outer loop
      vertex 0.750195 9.75595 -4.75
      vertex 1.24774 12.0102 -4.75
      vertex 1.74715 9.80344 -4.75
    endloop
  endfacet
  facet normal 0 0 -1
    outer loop
      vertex 0.750195 9.75595 -4.75
      vertex -0.752261 12.0102 -4.75
      vertex 1.24774 12.0102 -4.75
    endloop
  endfacet
  facet normal 0 0 -1
    outer loop
      vertex -1.2498 9.75595 -4.75
      vertex -0.752261 12.0102 -4.75
      vertex 0.750195 9.75595 -4.75
    endloop
  endfacet
  facet normal 0 0 -1
    outer loop
      vertex -1.2498 9.75595 -4.75
      vertex -1.73646 12.0918 -4.75
      vertex -0.752261 12.0102 -4.75
    endloop
  endfacet
  facet normal 0 0 -1
    outer loop
      vertex -2.23773 9.89799 -4.75
      vertex -1.73646 12.0918 -4.75
      vertex -1.2498 9.75595 -4.75
    endloop
  endfacet
  facet normal 0 0 -1
    outer loop
      vertex -3.18093 10.2244 -4.75
      vertex -1.73646 12.0918 -4.75
      vertex -2.23773 9.89799 -4.75
    endloop
  endfacet
  facet normal -0 0 -1
    outer loop
      vertex -1.73646 12.0918 -4.75
      vertex -3.18093 10.2244 -4.75
      vertex -2.64084 12.4885 -4.75
    endloop
  endfacet
  facet normal 0 0 -1
    outer loop
      vertex -4.0453 10.7235 -4.75
      vertex -2.64084 12.4885 -4.75
      vertex -3.18093 10.2244 -4.75
    endloop
  endfacet
  facet normal 0 0 -1
    outer loop
      vertex -4.7996 11.3771 -4.75
      vertex -2.64084 12.4885 -4.75
      vertex -4.0453 10.7235 -4.75
    endloop
  endfacet
  facet normal -0 0 -1
    outer loop
      vertex -3.36742 13.1574 -4.75
      vertex -5.41658 12.1616 -4.75
      vertex -3.83745 14.0259 -4.75
    endloop
  endfacet
  facet normal 0 0 -1
    outer loop
      vertex -5.41658 12.1616 -4.75
      vertex -3.36742 13.1574 -4.75
      vertex -4.7996 11.3771 -4.75
    endloop
  endfacet
  facet normal -0 0 -1
    outer loop
      vertex -2.64084 12.4885 -4.75
      vertex -4.7996 11.3771 -4.75
      vertex -3.36742 13.1574 -4.75
    endloop
  endfacet
  facet normal 0 0 -1
    outer loop
      vertex 2.20509 17.7473 -4.75
      vertex 2.71711 19.9613 -4.75
      vertex 2.71711 17.4128 -4.75
    endloop
  endfacet
  facet normal 0 0 -1
    outer loop
      vertex 1.24774 17.9898 -4.75
      vertex 2.71711 19.9613 -4.75
      vertex 2.20509 17.7473 -4.75
    endloop
  endfacet
  facet normal -0 0 -1
    outer loop
      vertex 2.71711 19.9613 -4.75
      vertex 1.24774 17.9898 -4.75
      vertex 1.74715 20.1966 -4.75
    endloop
  endfacet
  facet normal 0 0 -1
    outer loop
      vertex 1.24774 17.9898 -4.75
      vertex 0.750195 20.2441 -4.75
      vertex 1.74715 20.1966 -4.75
    endloop
  endfacet
  facet normal 0 0 -1
    outer loop
      vertex -0.752261 17.9898 -4.75
      vertex 0.750195 20.2441 -4.75
      vertex 1.24774 17.9898 -4.75
    endloop
  endfacet
  facet normal 0 0 -1
    outer loop
      vertex -0.752261 17.9898 -4.75
      vertex -1.2498 20.2441 -4.75
      vertex 0.750195 20.2441 -4.75
    endloop
  endfacet
  facet normal 0 0 -1
    outer loop
      vertex -1.73646 17.9082 -4.75
      vertex -1.2498 20.2441 -4.75
      vertex -0.752261 17.9898 -4.75
    endloop
  endfacet
  facet normal 0 0 -1
    outer loop
      vertex -1.73646 17.9082 -4.75
      vertex -2.23773 20.102 -4.75
      vertex -1.2498 20.2441 -4.75
    endloop
  endfacet
  facet normal 0 0 -1
    outer loop
      vertex -3.18093 19.7756 -4.75
      vertex -1.73646 17.9082 -4.75
      vertex -2.64084 17.5115 -4.75
    endloop
  endfacet
  facet normal 0 0 -1
    outer loop
      vertex -1.73646 17.9082 -4.75
      vertex -3.18093 19.7756 -4.75
      vertex -2.23773 20.102 -4.75
    endloop
  endfacet
  facet normal 0 0 -1
    outer loop
      vertex -4.7996 18.6229 -4.75
      vertex -2.64084 17.5115 -4.75
      vertex -3.36742 16.8426 -4.75
    endloop
  endfacet
  facet normal 0 0 -1
    outer loop
      vertex -5.41658 17.8384 -4.75
      vertex -3.36742 16.8426 -4.75
      vertex -3.83745 15.9741 -4.75
    endloop
  endfacet
  facet normal 0 0 -1
    outer loop
      vertex -2.64084 17.5115 -4.75
      vertex -4.0453 19.2765 -4.75
      vertex -3.18093 19.7756 -4.75
    endloop
  endfacet
  facet normal 0 0 -1
    outer loop
      vertex -6.15513 15.9936 -4.75
      vertex -3.83745 15.9741 -4.75
      vertex -3.90328 15.5796 -4.75
    endloop
  endfacet
  facet normal 0 0 -1
    outer loop
      vertex -6.15513 15.9936 -4.75
      vertex -3.90328 15.5796 -4.75
      vertex -4 15 -4.75
    endloop
  endfacet
  facet normal 0 0 -1
    outer loop
      vertex -5.87393 13.0488 -4.75
      vertex -3.83745 14.0259 -4.75
      vertex -5.41658 12.1616 -4.75
    endloop
  endfacet
  facet normal 0 0 -1
    outer loop
      vertex -6.15513 14.0064 -4.75
      vertex -3.83745 14.0259 -4.75
      vertex -5.87393 13.0488 -4.75
    endloop
  endfacet
  facet normal 0 0 -1
    outer loop
      vertex -2.64084 17.5115 -4.75
      vertex -4.7996 18.6229 -4.75
      vertex -4.0453 19.2765 -4.75
    endloop
  endfacet
  facet normal -0 0 -1
    outer loop
      vertex -3.83745 14.0259 -4.75
      vertex -6.15513 14.0064 -4.75
      vertex -3.90328 14.4204 -4.75
    endloop
  endfacet
  facet normal 0 0 -1
    outer loop
      vertex -3.36742 16.8426 -4.75
      vertex -5.41658 17.8384 -4.75
      vertex -4.7996 18.6229 -4.75
    endloop
  endfacet
  facet normal -0 0 -1
    outer loop
      vertex -3.90328 14.4204 -4.75
      vertex -6.15513 14.0064 -4.75
      vertex -4 15 -4.75
    endloop
  endfacet
  facet normal 0 0 -1
    outer loop
      vertex -3.83745 15.9741 -4.75
      vertex -5.87393 16.9512 -4.75
      vertex -5.41658 17.8384 -4.75
    endloop
  endfacet
  facet normal 0 0 -1
    outer loop
      vertex -6.25 15 -4.75
      vertex -4 15 -4.75
      vertex -6.15513 14.0064 -4.75
    endloop
  endfacet
  facet normal 0 0 -1
    outer loop
      vertex -3.83745 15.9741 -4.75
      vertex -6.15513 15.9936 -4.75
      vertex -5.87393 16.9512 -4.75
    endloop
  endfacet
  facet normal 0 0 -1
    outer loop
      vertex -4 15 -4.75
      vertex -6.25 15 -4.75
      vertex -6.15513 15.9936 -4.75
    endloop
  endfacet
  facet normal 4.9511e-07 -1.98212e-07 -1
    outer loop
      vertex 6.03734 13.5209 -4.75
      vertex 5.66639 12.5943 -4.75
      vertex 2.71711 10.0387 -4.75
    endloop
  endfacet
  facet normal 7.29712e-07 4.68957e-07 -1
    outer loop
      vertex 5.12678 18.2453 -4.75
      vertex 5.66639 17.4057 -4.75
      vertex 2.71711 19.9613 -4.75
    endloop
  endfacet
  facet normal 1.23286e-06 1.17553e-06 -1
    outer loop
      vertex 4.43802 18.9677 -4.75
      vertex 5.12678 18.2453 -4.75
      vertex 2.71711 19.9613 -4.75
    endloop
  endfacet
  facet normal 0 -1 0
    outer loop
      vertex -0.752261 17.9898 -4.75
      vertex 1.24774 17.9898 4.75
      vertex -0.752261 17.9898 4.75
    endloop
  endfacet
  facet normal 0 -1 -0
    outer loop
      vertex 1.24774 17.9898 4.75
      vertex -0.752261 17.9898 -4.75
      vertex 1.24774 17.9898 -4.75
    endloop
  endfacet
  facet normal 0.0825811 -0.996584 0
    outer loop
      vertex -1.73646 17.9082 -4.75
      vertex -0.752261 17.9898 4.75
      vertex -1.73646 17.9082 4.75
    endloop
  endfacet
  facet normal 0.0825811 -0.996584 0
    outer loop
      vertex -0.752261 17.9898 4.75
      vertex -1.73646 17.9082 -4.75
      vertex -0.752261 17.9898 -4.75
    endloop
  endfacet
  facet normal 0 1 -0
    outer loop
      vertex 1.24774 12.0102 -4.75
      vertex -0.752261 12.0102 4.75
      vertex 1.24774 12.0102 4.75
    endloop
  endfacet
  facet normal 0 1 0
    outer loop
      vertex -0.752261 12.0102 4.75
      vertex 1.24774 12.0102 -4.75
      vertex -0.752261 12.0102 -4.75
    endloop
  endfacet
  facet normal 0.401696 -0.915773 0
    outer loop
      vertex -2.64084 17.5115 -4.75
      vertex -2.23773 17.6883 4.75
      vertex -2.64084 17.5115 4.75
    endloop
  endfacet
  facet normal 0.401694 -0.915774 7.94882e-08
    outer loop
      vertex -1.73646 17.9082 -4.75
      vertex -2.23773 17.6883 4.75
      vertex -2.64084 17.5115 -4.75
    endloop
  endfacet
  facet normal 0.401693 -0.915774 0
    outer loop
      vertex -2.23773 17.6883 4.75
      vertex -1.73646 17.9082 -4.75
      vertex -1.73646 17.9082 4.75
    endloop
  endfacet
  facet normal 0.986361 -0.164596 0
    outer loop
      vertex -3.83745 15.9741 4.75
      vertex -3.90328 15.5796 -4.75
      vertex -3.83745 15.9741 -4.75
    endloop
  endfacet
  facet normal 0.986361 -0.164595 -1.749e-08
    outer loop
      vertex -3.90328 15.5796 -4.75
      vertex -3.83745 15.9741 4.75
      vertex -3.93417 15.3945 4.75
    endloop
  endfacet
  facet normal -0.546947 0.837167 0
    outer loop
      vertex 2.71711 12.5872 -4.75
      vertex 3.03184 12.7928 4.75
      vertex 3.03184 12.7928 -4.75
    endloop
  endfacet
  facet normal -0.546948 0.837167 1.92331e-08
    outer loop
      vertex 3.03184 12.7928 4.75
      vertex 2.71711 12.5872 -4.75
      vertex 2.20509 12.2527 4.75
    endloop
  endfacet
  facet normal -0.546948 0.837167 0
    outer loop
      vertex 2.20509 12.2527 4.75
      vertex 2.71711 12.5872 -4.75
      vertex 2.20509 12.2527 -4.75
    endloop
  endfacet
  facet normal 0.677282 -0.735724 0
    outer loop
      vertex -3.36742 16.8426 -4.75
      vertex -2.64084 17.5115 4.75
      vertex -3.36742 16.8426 4.75
    endloop
  endfacet
  facet normal 0.677282 -0.735724 0
    outer loop
      vertex -2.64084 17.5115 4.75
      vertex -3.36742 16.8426 -4.75
      vertex -2.64084 17.5115 -4.75
    endloop
  endfacet
  facet normal -1 0 0
    outer loop
      vertex 3.95908 14.5062 -4.75
      vertex 3.95908 15.4938 4.75
      vertex 3.95908 15.4938 -4.75
    endloop
  endfacet
  facet normal -1 -0 0
    outer loop
      vertex 3.95908 15.4938 4.75
      vertex 3.95908 14.5062 -4.75
      vertex 3.95908 14.5062 4.75
    endloop
  endfacet
  facet normal 0.401694 0.915774 -0
    outer loop
      vertex -1.73646 12.0918 -4.75
      vertex -2.23773 12.3117 4.75
      vertex -1.73646 12.0918 4.75
    endloop
  endfacet
  facet normal 0.401695 0.915774 3.85118e-08
    outer loop
      vertex -2.64084 12.4885 -4.75
      vertex -2.23773 12.3117 4.75
      vertex -1.73646 12.0918 -4.75
    endloop
  endfacet
  facet normal 0.401696 0.915773 0
    outer loop
      vertex -2.23773 12.3117 4.75
      vertex -2.64084 12.4885 -4.75
      vertex -2.64084 12.4885 4.75
    endloop
  endfacet
  facet normal 0.0825791 0.996585 -0
    outer loop
      vertex -0.752261 12.0102 -4.75
      vertex -1.73646 12.0918 4.75
      vertex -0.752261 12.0102 4.75
    endloop
  endfacet
  facet normal 0.0825791 0.996585 0
    outer loop
      vertex -1.73646 12.0918 4.75
      vertex -0.752261 12.0102 -4.75
      vertex -1.73646 12.0918 -4.75
    endloop
  endfacet
  facet normal -0.245486 0.9694 0
    outer loop
      vertex 2.20509 12.2527 -4.75
      vertex 1.24774 12.0102 4.75
      vertex 2.20509 12.2527 4.75
    endloop
  endfacet
  facet normal -0.245486 0.9694 0
    outer loop
      vertex 1.24774 12.0102 4.75
      vertex 2.20509 12.2527 -4.75
      vertex 1.24774 12.0102 -4.75
    endloop
  endfacet
  facet normal 0.879474 -0.475947 0
    outer loop
      vertex -3.83745 15.9741 4.75
      vertex -3.36742 16.8426 -4.75
      vertex -3.36742 16.8426 4.75
    endloop
  endfacet
  facet normal 0.879474 -0.475947 0
    outer loop
      vertex -3.36742 16.8426 -4.75
      vertex -3.83745 15.9741 4.75
      vertex -3.83745 15.9741 -4.75
    endloop
  endfacet
  facet normal -0.78914 0.614213 0
    outer loop
      vertex 3.03184 12.7928 -4.75
      vertex 3.63842 13.5722 4.75
      vertex 3.63842 13.5722 -4.75
    endloop
  endfacet
  facet normal -0.78914 0.614213 0
    outer loop
      vertex 3.63842 13.5722 4.75
      vertex 3.03184 12.7928 -4.75
      vertex 3.03184 12.7928 4.75
    endloop
  endfacet
  facet normal -0.945817 0.324699 0
    outer loop
      vertex 3.63842 13.5722 -4.75
      vertex 3.95908 14.5062 4.75
      vertex 3.95908 14.5062 -4.75
    endloop
  endfacet
  facet normal -0.945817 0.324699 0
    outer loop
      vertex 3.95908 14.5062 4.75
      vertex 3.63842 13.5722 -4.75
      vertex 3.63842 13.5722 4.75
    endloop
  endfacet
  facet normal -0.945817 -0.324699 0
    outer loop
      vertex 3.95908 15.4938 -4.75
      vertex 3.63842 16.4278 4.75
      vertex 3.63842 16.4278 -4.75
    endloop
  endfacet
  facet normal -0.945817 -0.324699 0
    outer loop
      vertex 3.63842 16.4278 4.75
      vertex 3.95908 15.4938 -4.75
      vertex 3.95908 15.4938 4.75
    endloop
  endfacet
  facet normal -0.546947 -0.837167 0
    outer loop
      vertex 2.71711 17.4128 -4.75
      vertex 2.20509 17.7473 4.75
      vertex 2.20509 17.7473 -4.75
    endloop
  endfacet
  facet normal -0.546946 -0.837168 3.9287e-08
    outer loop
      vertex 2.20509 17.7473 4.75
      vertex 2.71711 17.4128 -4.75
      vertex 3.03184 17.2072 4.75
    endloop
  endfacet
  facet normal -0.546946 -0.837168 -0
    outer loop
      vertex 3.03184 17.2072 4.75
      vertex 2.71711 17.4128 -4.75
      vertex 3.03184 17.2072 -4.75
    endloop
  endfacet
  facet normal -0.245487 -0.9694 0
    outer loop
      vertex 1.24774 17.9898 -4.75
      vertex 2.20509 17.7473 4.75
      vertex 1.24774 17.9898 4.75
    endloop
  endfacet
  facet normal -0.245487 -0.9694 -0
    outer loop
      vertex 2.20509 17.7473 4.75
      vertex 1.24774 17.9898 -4.75
      vertex 2.20509 17.7473 -4.75
    endloop
  endfacet
  facet normal 0.986361 -0.164594 0
    outer loop
      vertex -4 15 -4.75
      vertex -3.93417 15.3945 4.75
      vertex -4 15 4.75
    endloop
  endfacet
  facet normal 0.986361 -0.164594 -1.68043e-09
    outer loop
      vertex -3.93417 15.3945 4.75
      vertex -4 15 -4.75
      vertex -3.90328 15.5796 -4.75
    endloop
  endfacet
  facet normal 0.986361 0.164595 -1.749e-08
    outer loop
      vertex -3.83745 14.0259 4.75
      vertex -3.90328 14.4204 -4.75
      vertex -3.93417 14.6055 4.75
    endloop
  endfacet
  facet normal 0.986361 0.164596 0
    outer loop
      vertex -3.90328 14.4204 -4.75
      vertex -3.83745 14.0259 4.75
      vertex -3.83745 14.0259 -4.75
    endloop
  endfacet
  facet normal 0.986361 0.164594 0
    outer loop
      vertex -3.93417 14.6055 4.75
      vertex -4 15 -4.75
      vertex -4 15 4.75
    endloop
  endfacet
  facet normal 0.986361 0.164594 -1.68043e-09
    outer loop
      vertex -4 15 -4.75
      vertex -3.93417 14.6055 4.75
      vertex -3.90328 14.4204 -4.75
    endloop
  endfacet
  facet normal 0.879474 0.475947 0
    outer loop
      vertex -3.36742 13.1574 4.75
      vertex -3.83745 14.0259 -4.75
      vertex -3.83745 14.0259 4.75
    endloop
  endfacet
  facet normal 0.879474 0.475947 0
    outer loop
      vertex -3.83745 14.0259 -4.75
      vertex -3.36742 13.1574 4.75
      vertex -3.36742 13.1574 -4.75
    endloop
  endfacet
  facet normal 0.677282 0.735724 -0
    outer loop
      vertex -2.64084 12.4885 -4.75
      vertex -3.36742 13.1574 4.75
      vertex -2.64084 12.4885 4.75
    endloop
  endfacet
  facet normal 0.677282 0.735724 0
    outer loop
      vertex -3.36742 13.1574 4.75
      vertex -2.64084 12.4885 -4.75
      vertex -3.36742 13.1574 -4.75
    endloop
  endfacet
  facet normal -0.789141 -0.614212 0
    outer loop
      vertex 3.63842 16.4278 -4.75
      vertex 3.03184 17.2072 4.75
      vertex 3.03184 17.2072 -4.75
    endloop
  endfacet
  facet normal -0.789141 -0.614212 0
    outer loop
      vertex 3.03184 17.2072 4.75
      vertex 3.63842 16.4278 -4.75
      vertex 3.63842 16.4278 4.75
    endloop
  endfacet
endsolid OpenSCAD_Model
