solid OpenSCAD_Model
  facet normal -1 0 0
    outer loop
      vertex -6 28 0
      vertex -6 26 1
      vertex -6 28 15
    endloop
  endfacet
  facet normal -1 0 0
    outer loop
      vertex -6 28 0
      vertex -6 -26 1
      vertex -6 26 1
    endloop
  endfacet
  facet normal -1 0 0
    outer loop
      vertex -6 -28 0
      vertex -6 -26 1
      vertex -6 28 0
    endloop
  endfacet
  facet normal -1 0 0
    outer loop
      vertex -6 -28 15
      vertex -6 -26 1
      vertex -6 -28 0
    endloop
  endfacet
  facet normal -1 0 0
    outer loop
      vertex -6 -26 1
      vertex -6 -28 15
      vertex -6 -26 15
    endloop
  endfacet
  facet normal -1 -0 0
    outer loop
      vertex -6 28 15
      vertex -6 26 1
      vertex -6 26 15
    endloop
  endfacet
  facet normal 0 0 1
    outer loop
      vertex 6 26 1
      vertex 1.5 0 1
      vertex 6 -26 1
    endloop
  endfacet
  facet normal 0 0 1
    outer loop
      vertex 6 26 1
      vertex 1.21352 0.881678 1
      vertex 1.5 0 1
    endloop
  endfacet
  facet normal 0 0 1
    outer loop
      vertex 6 26 1
      vertex 0.463525 1.42658 1
      vertex 1.21352 0.881678 1
    endloop
  endfacet
  facet normal 0 0 1
    outer loop
      vertex 6 26 1
      vertex -0.463525 1.42658 1
      vertex 0.463525 1.42658 1
    endloop
  endfacet
  facet normal -0 0 1
    outer loop
      vertex -6 26 1
      vertex -0.463525 1.42658 1
      vertex 6 26 1
    endloop
  endfacet
  facet normal 0 0 1
    outer loop
      vertex -0.463525 1.42658 1
      vertex -6 26 1
      vertex -1.21352 0.881678 1
    endloop
  endfacet
  facet normal 0 0 1
    outer loop
      vertex -1.21352 0.881678 1
      vertex -6 26 1
      vertex -1.5 0 1
    endloop
  endfacet
  facet normal -0 0 1
    outer loop
      vertex 1.21352 -0.881678 1
      vertex 6 -26 1
      vertex 1.5 0 1
    endloop
  endfacet
  facet normal -0 0 1
    outer loop
      vertex 0.463525 -1.42658 1
      vertex 6 -26 1
      vertex 1.21352 -0.881678 1
    endloop
  endfacet
  facet normal -0 0 1
    outer loop
      vertex -0.463525 -1.42658 1
      vertex 6 -26 1
      vertex 0.463525 -1.42658 1
    endloop
  endfacet
  facet normal 0 0 1
    outer loop
      vertex -6 -26 1
      vertex -0.463525 -1.42658 1
      vertex -1.21352 -0.881678 1
    endloop
  endfacet
  facet normal 0 0 1
    outer loop
      vertex -6 -26 1
      vertex -1.21352 -0.881678 1
      vertex -1.5 0 1
    endloop
  endfacet
  facet normal 0 0 1
    outer loop
      vertex -0.463525 -1.42658 1
      vertex -6 -26 1
      vertex 6 -26 1
    endloop
  endfacet
  facet normal 0 0 1
    outer loop
      vertex -6 -26 1
      vertex -1.5 0 1
      vertex -6 26 1
    endloop
  endfacet
  facet normal 1 0 0
    outer loop
      vertex 6 -26 15
      vertex 6 -28 15
      vertex 6 -26 1
    endloop
  endfacet
  facet normal 1 0 0
    outer loop
      vertex 6 26 1
      vertex 6 28 15
      vertex 6 26 15
    endloop
  endfacet
  facet normal 1 0 0
    outer loop
      vertex 6 28 15
      vertex 6 26 1
      vertex 6 28 0
    endloop
  endfacet
  facet normal 1 -0 0
    outer loop
      vertex 6 -26 1
      vertex 6 28 0
      vertex 6 26 1
    endloop
  endfacet
  facet normal 1 0 0
    outer loop
      vertex 6 -26 1
      vertex 6 -28 0
      vertex 6 28 0
    endloop
  endfacet
  facet normal 1 0 0
    outer loop
      vertex 6 -28 0
      vertex 6 -26 1
      vertex 6 -28 15
    endloop
  endfacet
  facet normal 0 -1 0
    outer loop
      vertex -6 26 15
      vertex -4.66639 26 14.4057
      vertex -4.28445 26 15
    endloop
  endfacet
  facet normal 0 -1 0
    outer loop
      vertex -6 26 15
      vertex -5.03734 26 13.4791
      vertex -4.66639 26 14.4057
    endloop
  endfacet
  facet normal 0 -1 0
    outer loop
      vertex -6 26 15
      vertex -5.22623 26 12.499
      vertex -5.03734 26 13.4791
    endloop
  endfacet
  facet normal 0 -1 0
    outer loop
      vertex -6 26 15
      vertex -5.22623 26 11.501
      vertex -5.22623 26 12.499
    endloop
  endfacet
  facet normal 0 -1 0
    outer loop
      vertex -6 26 1
      vertex -5.22623 26 11.501
      vertex -6 26 15
    endloop
  endfacet
  facet normal 0 -1 -0
    outer loop
      vertex -0.747152 26 6.80344
      vertex -6 26 1
      vertex 0.249804 26 6.75595
    endloop
  endfacet
  facet normal 0 -1 -0
    outer loop
      vertex -1.71711 26 7.03874
      vertex -6 26 1
      vertex -0.747152 26 6.80344
    endloop
  endfacet
  facet normal 0 -1 -0
    outer loop
      vertex -2.625 26 7.45337
      vertex -6 26 1
      vertex -1.71711 26 7.03874
    endloop
  endfacet
  facet normal 0 -1 -0
    outer loop
      vertex -3.43802 26 8.03231
      vertex -6 26 1
      vertex -2.625 26 7.45337
    endloop
  endfacet
  facet normal 0 -1 -0
    outer loop
      vertex -4.12678 26 8.75466
      vertex -6 26 1
      vertex -3.43802 26 8.03231
    endloop
  endfacet
  facet normal 0 -1 -0
    outer loop
      vertex -4.66639 26 9.59431
      vertex -6 26 1
      vertex -4.12678 26 8.75466
    endloop
  endfacet
  facet normal 0 -1 -0
    outer loop
      vertex -5.03734 26 10.5209
      vertex -6 26 1
      vertex -4.66639 26 9.59431
    endloop
  endfacet
  facet normal 0 -1 -0
    outer loop
      vertex -5.22623 26 11.501
      vertex -6 26 1
      vertex -5.03734 26 10.5209
    endloop
  endfacet
  facet normal 0 -1 0
    outer loop
      vertex 4.41658 26 14.8384
      vertex 6 26 15
      vertex 4.28947 26 15
    endloop
  endfacet
  facet normal 0 -1 0
    outer loop
      vertex 4.87393 26 13.9512
      vertex 6 26 15
      vertex 4.41658 26 14.8384
    endloop
  endfacet
  facet normal 0 -1 0
    outer loop
      vertex 5.15513 26 12.9936
      vertex 6 26 15
      vertex 4.87393 26 13.9512
    endloop
  endfacet
  facet normal 0 -1 0
    outer loop
      vertex 5.1779 26 12.7551
      vertex 6 26 15
      vertex 5.15513 26 12.9936
    endloop
  endfacet
  facet normal 0 -1 0
    outer loop
      vertex 5.25 26 12
      vertex 6 26 15
      vertex 5.1779 26 12.7551
    endloop
  endfacet
  facet normal 0 -1 0
    outer loop
      vertex 5.22723 26 11.7615
      vertex 6 26 15
      vertex 5.25 26 12
    endloop
  endfacet
  facet normal 0 -1 0
    outer loop
      vertex 5.15513 26 11.0064
      vertex 6 26 15
      vertex 5.22723 26 11.7615
    endloop
  endfacet
  facet normal 0 -1 0
    outer loop
      vertex 6 26 1
      vertex 0.249804 26 6.75595
      vertex -6 26 1
    endloop
  endfacet
  facet normal 0 -1 0
    outer loop
      vertex 0.249804 26 6.75595
      vertex 6 26 1
      vertex 1.23773 26 6.89799
    endloop
  endfacet
  facet normal 0 -1 0
    outer loop
      vertex 1.23773 26 6.89799
      vertex 6 26 1
      vertex 2.18093 26 7.22443
    endloop
  endfacet
  facet normal 0 -1 0
    outer loop
      vertex 5.15513 26 11.0064
      vertex 6 26 1
      vertex 6 26 15
    endloop
  endfacet
  facet normal 0 -1 0
    outer loop
      vertex 4.87393 26 10.0488
      vertex 6 26 1
      vertex 5.15513 26 11.0064
    endloop
  endfacet
  facet normal 0 -1 0
    outer loop
      vertex 4.41658 26 9.16164
      vertex 6 26 1
      vertex 4.87393 26 10.0488
    endloop
  endfacet
  facet normal 0 -1 0
    outer loop
      vertex 3.7996 26 8.37708
      vertex 6 26 1
      vertex 4.41658 26 9.16164
    endloop
  endfacet
  facet normal 0 -1 0
    outer loop
      vertex 3.0453 26 7.72348
      vertex 6 26 1
      vertex 3.7996 26 8.37708
    endloop
  endfacet
  facet normal 0 -1 0
    outer loop
      vertex 2.18093 26 7.22443
      vertex 6 26 1
      vertex 3.0453 26 7.72348
    endloop
  endfacet
  facet normal 0 0 -1
    outer loop
      vertex 6 -28 0
      vertex 1.5 0 0
      vertex 6 28 0
    endloop
  endfacet
  facet normal 0 0 -1
    outer loop
      vertex 6 -28 0
      vertex 1.21352 -0.881678 0
      vertex 1.5 0 0
    endloop
  endfacet
  facet normal 0 0 -1
    outer loop
      vertex 6 -28 0
      vertex 0.463525 -1.42658 0
      vertex 1.21352 -0.881678 0
    endloop
  endfacet
  facet normal 0 0 -1
    outer loop
      vertex 6 -28 0
      vertex -0.463525 -1.42658 0
      vertex 0.463525 -1.42658 0
    endloop
  endfacet
  facet normal 0 0 -1
    outer loop
      vertex -6 -28 0
      vertex -0.463525 -1.42658 0
      vertex 6 -28 0
    endloop
  endfacet
  facet normal -0 0 -1
    outer loop
      vertex -0.463525 -1.42658 0
      vertex -6 -28 0
      vertex -1.21352 -0.881678 0
    endloop
  endfacet
  facet normal -0 0 -1
    outer loop
      vertex -1.21352 -0.881678 0
      vertex -6 -28 0
      vertex -1.5 0 0
    endloop
  endfacet
  facet normal 0 0 -1
    outer loop
      vertex 1.21352 0.881678 0
      vertex 6 28 0
      vertex 1.5 0 0
    endloop
  endfacet
  facet normal 0 0 -1
    outer loop
      vertex 0.463525 1.42658 0
      vertex 6 28 0
      vertex 1.21352 0.881678 0
    endloop
  endfacet
  facet normal 0 0 -1
    outer loop
      vertex -0.463525 1.42658 0
      vertex 6 28 0
      vertex 0.463525 1.42658 0
    endloop
  endfacet
  facet normal 0 0 -1
    outer loop
      vertex -6 28 0
      vertex -0.463525 1.42658 0
      vertex -1.21352 0.881678 0
    endloop
  endfacet
  facet normal 0 0 -1
    outer loop
      vertex -6 28 0
      vertex -1.21352 0.881678 0
      vertex -1.5 0 0
    endloop
  endfacet
  facet normal 0 0 -1
    outer loop
      vertex -0.463525 1.42658 0
      vertex -6 28 0
      vertex 6 28 0
    endloop
  endfacet
  facet normal 0 0 -1
    outer loop
      vertex -6 28 0
      vertex -1.5 0 0
      vertex -6 -28 0
    endloop
  endfacet
  facet normal 0 1 0
    outer loop
      vertex 6 -26 15
      vertex 4.41658 -26 14.8384
      vertex 4.28947 -26 15
    endloop
  endfacet
  facet normal 0 1 0
    outer loop
      vertex 6 -26 15
      vertex 4.87393 -26 13.9512
      vertex 4.41658 -26 14.8384
    endloop
  endfacet
  facet normal 0 1 0
    outer loop
      vertex 6 -26 15
      vertex 5.15513 -26 12.9936
      vertex 4.87393 -26 13.9512
    endloop
  endfacet
  facet normal 0 1 0
    outer loop
      vertex 6 -26 15
      vertex 5.22723 -26 12.2385
      vertex 5.15513 -26 12.9936
    endloop
  endfacet
  facet normal 0 1 0
    outer loop
      vertex 6 -26 15
      vertex 5.25 -26 12
      vertex 5.22723 -26 12.2385
    endloop
  endfacet
  facet normal 0 1 0
    outer loop
      vertex 6 -26 15
      vertex 5.1779 -26 11.2449
      vertex 5.25 -26 12
    endloop
  endfacet
  facet normal 0 1 0
    outer loop
      vertex 6 -26 15
      vertex 5.15513 -26 11.0064
      vertex 5.1779 -26 11.2449
    endloop
  endfacet
  facet normal 0 1 0
    outer loop
      vertex 1.23773 -26 6.89799
      vertex 6 -26 1
      vertex 0.249804 -26 6.75595
    endloop
  endfacet
  facet normal 0 1 0
    outer loop
      vertex 2.18093 -26 7.22443
      vertex 6 -26 1
      vertex 1.23773 -26 6.89799
    endloop
  endfacet
  facet normal 0 1 0
    outer loop
      vertex 3.0453 -26 7.72348
      vertex 6 -26 1
      vertex 2.18093 -26 7.22443
    endloop
  endfacet
  facet normal 0 1 0
    outer loop
      vertex 3.7996 -26 8.37708
      vertex 6 -26 1
      vertex 3.0453 -26 7.72348
    endloop
  endfacet
  facet normal 0 1 0
    outer loop
      vertex 4.41658 -26 9.16164
      vertex 6 -26 1
      vertex 3.7996 -26 8.37708
    endloop
  endfacet
  facet normal 0 1 0
    outer loop
      vertex 4.87393 -26 10.0488
      vertex 6 -26 1
      vertex 4.41658 -26 9.16164
    endloop
  endfacet
  facet normal 0 1 0
    outer loop
      vertex 5.15513 -26 11.0064
      vertex 6 -26 1
      vertex 4.87393 -26 10.0488
    endloop
  endfacet
  facet normal 0 1 -0
    outer loop
      vertex 6 -26 1
      vertex 5.15513 -26 11.0064
      vertex 6 -26 15
    endloop
  endfacet
  facet normal 0 1 -0
    outer loop
      vertex -4.66639 -26 14.4057
      vertex -6 -26 15
      vertex -4.28445 -26 15
    endloop
  endfacet
  facet normal 0 1 -0
    outer loop
      vertex -5.03734 -26 13.4791
      vertex -6 -26 15
      vertex -4.66639 -26 14.4057
    endloop
  endfacet
  facet normal 0 1 -0
    outer loop
      vertex -5.22623 -26 12.499
      vertex -6 -26 15
      vertex -5.03734 -26 13.4791
    endloop
  endfacet
  facet normal 0 1 -0
    outer loop
      vertex -5.22623 -26 11.501
      vertex -6 -26 15
      vertex -5.22623 -26 12.499
    endloop
  endfacet
  facet normal 0 1 0
    outer loop
      vertex -6 -26 1
      vertex -5.22623 -26 11.501
      vertex -5.03734 -26 10.5209
    endloop
  endfacet
  facet normal 0 1 0
    outer loop
      vertex -6 -26 1
      vertex 0.249804 -26 6.75595
      vertex 6 -26 1
    endloop
  endfacet
  facet normal 0 1 0
    outer loop
      vertex 0.249804 -26 6.75595
      vertex -6 -26 1
      vertex -0.747152 -26 6.80344
    endloop
  endfacet
  facet normal 0 1 0
    outer loop
      vertex -0.747152 -26 6.80344
      vertex -6 -26 1
      vertex -1.71711 -26 7.03874
    endloop
  endfacet
  facet normal 0 1 0
    outer loop
      vertex -1.71711 -26 7.03874
      vertex -6 -26 1
      vertex -2.625 -26 7.45337
    endloop
  endfacet
  facet normal 0 1 0
    outer loop
      vertex -5.22623 -26 11.501
      vertex -6 -26 1
      vertex -6 -26 15
    endloop
  endfacet
  facet normal 0 1 0
    outer loop
      vertex -4.66639 -26 9.59431
      vertex -6 -26 1
      vertex -5.03734 -26 10.5209
    endloop
  endfacet
  facet normal 0 1 0
    outer loop
      vertex -4.12678 -26 8.75466
      vertex -6 -26 1
      vertex -4.66639 -26 9.59431
    endloop
  endfacet
  facet normal 0 1 0
    outer loop
      vertex -3.43802 -26 8.03231
      vertex -6 -26 1
      vertex -4.12678 -26 8.75466
    endloop
  endfacet
  facet normal 0 1 0
    outer loop
      vertex -2.625 -26 7.45337
      vertex -6 -26 1
      vertex -3.43802 -26 8.03231
    endloop
  endfacet
  facet normal -0.951056 -0.309018 0
    outer loop
      vertex 1.5 0 0
      vertex 1.21352 0.881678 1
      vertex 1.21352 0.881678 0
    endloop
  endfacet
  facet normal -0.951056 -0.309018 0
    outer loop
      vertex 1.21352 0.881678 1
      vertex 1.5 0 0
      vertex 1.5 0 1
    endloop
  endfacet
  facet normal 0.951056 -0.309018 0
    outer loop
      vertex -1.5 0 1
      vertex -1.21352 0.881678 0
      vertex -1.21352 0.881678 1
    endloop
  endfacet
  facet normal 0.951056 -0.309018 0
    outer loop
      vertex -1.21352 0.881678 0
      vertex -1.5 0 1
      vertex -1.5 0 0
    endloop
  endfacet
  facet normal 0 -1 0
    outer loop
      vertex -0.463525 1.42658 0
      vertex 0.463525 1.42658 1
      vertex -0.463525 1.42658 1
    endloop
  endfacet
  facet normal 0 -1 -0
    outer loop
      vertex 0.463525 1.42658 1
      vertex -0.463525 1.42658 0
      vertex 0.463525 1.42658 0
    endloop
  endfacet
  facet normal -0.587785 -0.809017 0
    outer loop
      vertex 0.463525 1.42658 0
      vertex 1.21352 0.881678 1
      vertex 0.463525 1.42658 1
    endloop
  endfacet
  facet normal -0.587785 -0.809017 -0
    outer loop
      vertex 1.21352 0.881678 1
      vertex 0.463525 1.42658 0
      vertex 1.21352 0.881678 0
    endloop
  endfacet
  facet normal 0.587785 -0.809017 0
    outer loop
      vertex -1.21352 0.881678 0
      vertex -0.463525 1.42658 1
      vertex -1.21352 0.881678 1
    endloop
  endfacet
  facet normal 0.587785 -0.809017 0
    outer loop
      vertex -0.463525 1.42658 1
      vertex -1.21352 0.881678 0
      vertex -0.463525 1.42658 0
    endloop
  endfacet
  facet normal -0.951056 0.309018 0
    outer loop
      vertex 1.21352 -0.881678 0
      vertex 1.5 0 1
      vertex 1.5 0 0
    endloop
  endfacet
  facet normal -0.951056 0.309018 0
    outer loop
      vertex 1.5 0 1
      vertex 1.21352 -0.881678 0
      vertex 1.21352 -0.881678 1
    endloop
  endfacet
  facet normal 0.951056 0.309018 0
    outer loop
      vertex -1.21352 -0.881678 1
      vertex -1.5 0 0
      vertex -1.5 0 1
    endloop
  endfacet
  facet normal 0.951056 0.309018 0
    outer loop
      vertex -1.5 0 0
      vertex -1.21352 -0.881678 1
      vertex -1.21352 -0.881678 0
    endloop
  endfacet
  facet normal 0.587785 0.809017 -0
    outer loop
      vertex -0.463525 -1.42658 0
      vertex -1.21352 -0.881678 1
      vertex -0.463525 -1.42658 1
    endloop
  endfacet
  facet normal 0.587785 0.809017 0
    outer loop
      vertex -1.21352 -0.881678 1
      vertex -0.463525 -1.42658 0
      vertex -1.21352 -0.881678 0
    endloop
  endfacet
  facet normal -0.587785 0.809017 0
    outer loop
      vertex 1.21352 -0.881678 0
      vertex 0.463525 -1.42658 1
      vertex 1.21352 -0.881678 1
    endloop
  endfacet
  facet normal -0.587785 0.809017 0
    outer loop
      vertex 0.463525 -1.42658 1
      vertex 1.21352 -0.881678 0
      vertex 0.463525 -1.42658 0
    endloop
  endfacet
  facet normal 0 1 -0
    outer loop
      vertex 0.463525 -1.42658 0
      vertex -0.463525 -1.42658 1
      vertex 0.463525 -1.42658 1
    endloop
  endfacet
  facet normal 0 1 0
    outer loop
      vertex -0.463525 -1.42658 1
      vertex 0.463525 -1.42658 0
      vertex -0.463525 -1.42658 0
    endloop
  endfacet
  facet normal -0 0 1
    outer loop
      vertex -6 -26 15
      vertex -4.28445 -28 15
      vertex -4.28445 -26 15
    endloop
  endfacet
  facet normal 0 0 1
    outer loop
      vertex -4.28445 -28 15
      vertex -6 -26 15
      vertex -6 -28 15
    endloop
  endfacet
  facet normal -0 0 1
    outer loop
      vertex 4.28947 -26 15
      vertex 6 -28 15
      vertex 6 -26 15
    endloop
  endfacet
  facet normal 0 0 1
    outer loop
      vertex 6 -28 15
      vertex 4.28947 -26 15
      vertex 4.28947 -28 15
    endloop
  endfacet
  facet normal 0 -1 0
    outer loop
      vertex -6 -28 15
      vertex -4.66639 -28 14.4057
      vertex -4.28445 -28 15
    endloop
  endfacet
  facet normal 0 -1 0
    outer loop
      vertex -6 -28 15
      vertex -5.03734 -28 13.4791
      vertex -4.66639 -28 14.4057
    endloop
  endfacet
  facet normal 0 -1 0
    outer loop
      vertex -6 -28 15
      vertex -5.22623 -28 12.499
      vertex -5.03734 -28 13.4791
    endloop
  endfacet
  facet normal 0 -1 0
    outer loop
      vertex -6 -28 15
      vertex -5.22623 -28 11.501
      vertex -5.22623 -28 12.499
    endloop
  endfacet
  facet normal 0 -1 0
    outer loop
      vertex -6 -28 0
      vertex -5.22623 -28 11.501
      vertex -6 -28 15
    endloop
  endfacet
  facet normal 0 -1 -0
    outer loop
      vertex -0.747152 -28 6.80344
      vertex -6 -28 0
      vertex 0.249804 -28 6.75595
    endloop
  endfacet
  facet normal 0 -1 -0
    outer loop
      vertex -1.71711 -28 7.03874
      vertex -6 -28 0
      vertex -0.747152 -28 6.80344
    endloop
  endfacet
  facet normal 0 -1 -0
    outer loop
      vertex -2.625 -28 7.45337
      vertex -6 -28 0
      vertex -1.71711 -28 7.03874
    endloop
  endfacet
  facet normal 0 -1 -0
    outer loop
      vertex -3.43802 -28 8.03231
      vertex -6 -28 0
      vertex -2.625 -28 7.45337
    endloop
  endfacet
  facet normal 0 -1 -0
    outer loop
      vertex -4.12678 -28 8.75466
      vertex -6 -28 0
      vertex -3.43802 -28 8.03231
    endloop
  endfacet
  facet normal 0 -1 -0
    outer loop
      vertex -4.66639 -28 9.59431
      vertex -6 -28 0
      vertex -4.12678 -28 8.75466
    endloop
  endfacet
  facet normal 0 -1 -0
    outer loop
      vertex -5.03734 -28 10.5209
      vertex -6 -28 0
      vertex -4.66639 -28 9.59431
    endloop
  endfacet
  facet normal 0 -1 -0
    outer loop
      vertex -5.22623 -28 11.501
      vertex -6 -28 0
      vertex -5.03734 -28 10.5209
    endloop
  endfacet
  facet normal 0 -1 0
    outer loop
      vertex 4.41658 -28 14.8384
      vertex 6 -28 15
      vertex 4.28947 -28 15
    endloop
  endfacet
  facet normal 0 -1 0
    outer loop
      vertex 4.87393 -28 13.9512
      vertex 6 -28 15
      vertex 4.41658 -28 14.8384
    endloop
  endfacet
  facet normal 0 -1 0
    outer loop
      vertex 5.15513 -28 12.9936
      vertex 6 -28 15
      vertex 4.87393 -28 13.9512
    endloop
  endfacet
  facet normal 0 -1 0
    outer loop
      vertex 5.22913 -28 12.2186
      vertex 6 -28 15
      vertex 5.15513 -28 12.9936
    endloop
  endfacet
  facet normal 0 -1 0
    outer loop
      vertex 5.25 -28 12
      vertex 6 -28 15
      vertex 5.22913 -28 12.2186
    endloop
  endfacet
  facet normal 0 -1 0
    outer loop
      vertex 5.176 -28 11.225
      vertex 6 -28 15
      vertex 5.25 -28 12
    endloop
  endfacet
  facet normal 0 -1 0
    outer loop
      vertex 5.15513 -28 11.0064
      vertex 6 -28 15
      vertex 5.176 -28 11.225
    endloop
  endfacet
  facet normal 0 -1 0
    outer loop
      vertex 6 -28 0
      vertex 0.249804 -28 6.75595
      vertex -6 -28 0
    endloop
  endfacet
  facet normal 0 -1 0
    outer loop
      vertex 0.249804 -28 6.75595
      vertex 6 -28 0
      vertex 1.23773 -28 6.89799
    endloop
  endfacet
  facet normal 0 -1 0
    outer loop
      vertex 1.23773 -28 6.89799
      vertex 6 -28 0
      vertex 2.18093 -28 7.22443
    endloop
  endfacet
  facet normal 0 -1 0
    outer loop
      vertex 5.15513 -28 11.0064
      vertex 6 -28 0
      vertex 6 -28 15
    endloop
  endfacet
  facet normal 0 -1 0
    outer loop
      vertex 4.87393 -28 10.0488
      vertex 6 -28 0
      vertex 5.15513 -28 11.0064
    endloop
  endfacet
  facet normal 0 -1 0
    outer loop
      vertex 4.41658 -28 9.16164
      vertex 6 -28 0
      vertex 4.87393 -28 10.0488
    endloop
  endfacet
  facet normal 0 -1 0
    outer loop
      vertex 3.7996 -28 8.37708
      vertex 6 -28 0
      vertex 4.41658 -28 9.16164
    endloop
  endfacet
  facet normal 0 -1 0
    outer loop
      vertex 3.0453 -28 7.72348
      vertex 6 -28 0
      vertex 3.7996 -28 8.37708
    endloop
  endfacet
  facet normal 0 -1 0
    outer loop
      vertex 2.18093 -28 7.22443
      vertex 6 -28 0
      vertex 3.0453 -28 7.72348
    endloop
  endfacet
  facet normal -0 0 1
    outer loop
      vertex -6 28 15
      vertex -4.28445 26 15
      vertex -4.28445 28 15
    endloop
  endfacet
  facet normal 0 0 1
    outer loop
      vertex -4.28445 26 15
      vertex -6 28 15
      vertex -6 26 15
    endloop
  endfacet
  facet normal -0 0 1
    outer loop
      vertex 4.28947 28 15
      vertex 6 26 15
      vertex 6 28 15
    endloop
  endfacet
  facet normal 0 0 1
    outer loop
      vertex 6 26 15
      vertex 4.28947 28 15
      vertex 4.28947 26 15
    endloop
  endfacet
  facet normal 0 1 0
    outer loop
      vertex 6 28 15
      vertex 4.41658 28 14.8384
      vertex 4.28947 28 15
    endloop
  endfacet
  facet normal 0 1 0
    outer loop
      vertex 6 28 15
      vertex 4.87393 28 13.9512
      vertex 4.41658 28 14.8384
    endloop
  endfacet
  facet normal 0 1 0
    outer loop
      vertex 6 28 15
      vertex 5.15513 28 12.9936
      vertex 4.87393 28 13.9512
    endloop
  endfacet
  facet normal 0 1 0
    outer loop
      vertex 6 28 15
      vertex 5.176 28 12.775
      vertex 5.15513 28 12.9936
    endloop
  endfacet
  facet normal 0 1 0
    outer loop
      vertex 6 28 15
      vertex 5.25 28 12
      vertex 5.176 28 12.775
    endloop
  endfacet
  facet normal 0 1 0
    outer loop
      vertex 6 28 15
      vertex 5.22913 28 11.7814
      vertex 5.25 28 12
    endloop
  endfacet
  facet normal 0 1 0
    outer loop
      vertex 6 28 15
      vertex 5.15513 28 11.0064
      vertex 5.22913 28 11.7814
    endloop
  endfacet
  facet normal 0 1 0
    outer loop
      vertex 1.23773 28 6.89799
      vertex 6 28 0
      vertex 0.249804 28 6.75595
    endloop
  endfacet
  facet normal 0 1 0
    outer loop
      vertex 2.18093 28 7.22443
      vertex 6 28 0
      vertex 1.23773 28 6.89799
    endloop
  endfacet
  facet normal 0 1 0
    outer loop
      vertex 3.0453 28 7.72348
      vertex 6 28 0
      vertex 2.18093 28 7.22443
    endloop
  endfacet
  facet normal 0 1 0
    outer loop
      vertex 3.7996 28 8.37708
      vertex 6 28 0
      vertex 3.0453 28 7.72348
    endloop
  endfacet
  facet normal 0 1 0
    outer loop
      vertex 4.41658 28 9.16164
      vertex 6 28 0
      vertex 3.7996 28 8.37708
    endloop
  endfacet
  facet normal 0 1 0
    outer loop
      vertex 4.87393 28 10.0488
      vertex 6 28 0
      vertex 4.41658 28 9.16164
    endloop
  endfacet
  facet normal 0 1 0
    outer loop
      vertex 5.15513 28 11.0064
      vertex 6 28 0
      vertex 4.87393 28 10.0488
    endloop
  endfacet
  facet normal 0 1 -0
    outer loop
      vertex 6 28 0
      vertex 5.15513 28 11.0064
      vertex 6 28 15
    endloop
  endfacet
  facet normal 0 1 -0
    outer loop
      vertex -4.66639 28 14.4057
      vertex -6 28 15
      vertex -4.28445 28 15
    endloop
  endfacet
  facet normal 0 1 -0
    outer loop
      vertex -5.03734 28 13.4791
      vertex -6 28 15
      vertex -4.66639 28 14.4057
    endloop
  endfacet
  facet normal 0 1 -0
    outer loop
      vertex -5.22623 28 12.499
      vertex -6 28 15
      vertex -5.03734 28 13.4791
    endloop
  endfacet
  facet normal 0 1 -0
    outer loop
      vertex -5.22623 28 11.501
      vertex -6 28 15
      vertex -5.22623 28 12.499
    endloop
  endfacet
  facet normal 0 1 0
    outer loop
      vertex -6 28 0
      vertex -5.22623 28 11.501
      vertex -5.03734 28 10.5209
    endloop
  endfacet
  facet normal 0 1 0
    outer loop
      vertex -6 28 0
      vertex 0.249804 28 6.75595
      vertex 6 28 0
    endloop
  endfacet
  facet normal 0 1 0
    outer loop
      vertex 0.249804 28 6.75595
      vertex -6 28 0
      vertex -0.747152 28 6.80344
    endloop
  endfacet
  facet normal 0 1 0
    outer loop
      vertex -0.747152 28 6.80344
      vertex -6 28 0
      vertex -1.71711 28 7.03874
    endloop
  endfacet
  facet normal 0 1 0
    outer loop
      vertex -1.71711 28 7.03874
      vertex -6 28 0
      vertex -2.625 28 7.45337
    endloop
  endfacet
  facet normal 0 1 0
    outer loop
      vertex -5.22623 28 11.501
      vertex -6 28 0
      vertex -6 28 15
    endloop
  endfacet
  facet normal 0 1 0
    outer loop
      vertex -4.66639 28 9.59431
      vertex -6 28 0
      vertex -5.03734 28 10.5209
    endloop
  endfacet
  facet normal 0 1 0
    outer loop
      vertex -4.12678 28 8.75466
      vertex -6 28 0
      vertex -4.66639 28 9.59431
    endloop
  endfacet
  facet normal 0 1 0
    outer loop
      vertex -3.43802 28 8.03231
      vertex -6 28 0
      vertex -4.12678 28 8.75466
    endloop
  endfacet
  facet normal 0 1 0
    outer loop
      vertex -2.625 28 7.45337
      vertex -6 28 0
      vertex -3.43802 28 8.03231
    endloop
  endfacet
  facet normal -0.995472 9.16483e-08 -0.0950561
    outer loop
      vertex 5.22913 -28 12.2186
      vertex 5.15513 -26 12.9936
      vertex 5.22723 -26 12.2385
    endloop
  endfacet
  facet normal -0.995472 -0 -0.0950558
    outer loop
      vertex 5.15513 -26 12.9936
      vertex 5.22913 -28 12.2186
      vertex 5.15513 -28 12.9936
    endloop
  endfacet
  facet normal -0.995472 1.02788e-07 -0.0950572
    outer loop
      vertex 5.1779 26 12.7551
      vertex 5.15513 28 12.9936
      vertex 5.176 28 12.775
    endloop
  endfacet
  facet normal -0.995472 -0 -0.0950563
    outer loop
      vertex 5.15513 28 12.9936
      vertex 5.1779 26 12.7551
      vertex 5.15513 26 12.9936
    endloop
  endfacet
  facet normal -0.959493 0 -0.281733
    outer loop
      vertex 5.15513 -28 12.9936
      vertex 4.87393 -26 13.9512
      vertex 5.15513 -26 12.9936
    endloop
  endfacet
  facet normal -0.959493 -0 -0.281733
    outer loop
      vertex 4.87393 -26 13.9512
      vertex 5.15513 -28 12.9936
      vertex 4.87393 -28 13.9512
    endloop
  endfacet
  facet normal -0.959493 0 -0.281733
    outer loop
      vertex 5.15513 26 12.9936
      vertex 4.87393 28 13.9512
      vertex 5.15513 28 12.9936
    endloop
  endfacet
  facet normal -0.959493 -0 -0.281733
    outer loop
      vertex 4.87393 28 13.9512
      vertex 5.15513 26 12.9936
      vertex 4.87393 26 13.9512
    endloop
  endfacet
  facet normal -0.995472 0 -0.0950563
    outer loop
      vertex 5.25 -28 12
      vertex 5.22723 -26 12.2385
      vertex 5.25 -26 12
    endloop
  endfacet
  facet normal -0.995472 1.02788e-07 -0.0950572
    outer loop
      vertex 5.22723 -26 12.2385
      vertex 5.25 -28 12
      vertex 5.22913 -28 12.2186
    endloop
  endfacet
  facet normal -0.995472 0 -0.0950557
    outer loop
      vertex 5.25 26 12
      vertex 5.176 28 12.775
      vertex 5.25 28 12
    endloop
  endfacet
  facet normal -0.995472 9.04555e-08 -0.095056
    outer loop
      vertex 5.176 28 12.775
      vertex 5.25 26 12
      vertex 5.1779 26 12.7551
    endloop
  endfacet
  facet normal 1 -0 0
    outer loop
      vertex -5.22623 -28 12.499
      vertex -5.22623 -26 11.501
      vertex -5.22623 -26 12.499
    endloop
  endfacet
  facet normal 1 0 0
    outer loop
      vertex -5.22623 -26 11.501
      vertex -5.22623 -28 12.499
      vertex -5.22623 -28 11.501
    endloop
  endfacet
  facet normal 1 -0 0
    outer loop
      vertex -5.22623 26 12.499
      vertex -5.22623 28 11.501
      vertex -5.22623 28 12.499
    endloop
  endfacet
  facet normal 1 0 0
    outer loop
      vertex -5.22623 28 11.501
      vertex -5.22623 26 12.499
      vertex -5.22623 26 11.501
    endloop
  endfacet
  facet normal -0.888835 0 -0.458227
    outer loop
      vertex 4.87393 -28 13.9512
      vertex 4.41658 -26 14.8384
      vertex 4.87393 -26 13.9512
    endloop
  endfacet
  facet normal -0.888835 -0 -0.458227
    outer loop
      vertex 4.41658 -26 14.8384
      vertex 4.87393 -28 13.9512
      vertex 4.41658 -28 14.8384
    endloop
  endfacet
  facet normal -0.888835 0 -0.458227
    outer loop
      vertex 4.87393 26 13.9512
      vertex 4.41658 28 14.8384
      vertex 4.87393 28 13.9512
    endloop
  endfacet
  facet normal -0.888835 -0 -0.458227
    outer loop
      vertex 4.41658 28 14.8384
      vertex 4.87393 26 13.9512
      vertex 4.41658 26 14.8384
    endloop
  endfacet
  facet normal 0.928368 0 -0.371662
    outer loop
      vertex -4.66639 -28 14.4057
      vertex -5.03734 -26 13.4791
      vertex -4.66639 -26 14.4057
    endloop
  endfacet
  facet normal 0.928368 0 -0.371662
    outer loop
      vertex -5.03734 -26 13.4791
      vertex -4.66639 -28 14.4057
      vertex -5.03734 -28 13.4791
    endloop
  endfacet
  facet normal 0.928368 0 -0.371662
    outer loop
      vertex -4.66639 26 14.4057
      vertex -5.03734 28 13.4791
      vertex -4.66639 28 14.4057
    endloop
  endfacet
  facet normal 0.928368 0 -0.371662
    outer loop
      vertex -5.03734 28 13.4791
      vertex -4.66639 26 14.4057
      vertex -5.03734 26 13.4791
    endloop
  endfacet
  facet normal 0.841254 0 -0.54064
    outer loop
      vertex -4.28445 26 15
      vertex -4.66639 28 14.4057
      vertex -4.28445 28 15
    endloop
  endfacet
  facet normal 0.841254 0 -0.54064
    outer loop
      vertex -4.66639 28 14.4057
      vertex -4.28445 26 15
      vertex -4.66639 26 14.4057
    endloop
  endfacet
  facet normal 0.841254 0 -0.54064
    outer loop
      vertex -4.28445 -28 15
      vertex -4.66639 -26 14.4057
      vertex -4.28445 -26 15
    endloop
  endfacet
  facet normal 0.841254 0 -0.54064
    outer loop
      vertex -4.66639 -26 14.4057
      vertex -4.28445 -28 15
      vertex -4.66639 -28 14.4057
    endloop
  endfacet
  facet normal -0.995472 0 0.0950563
    outer loop
      vertex 5.15513 -28 11.0064
      vertex 5.1779 -26 11.2449
      vertex 5.15513 -26 11.0064
    endloop
  endfacet
  facet normal -0.995472 -1.02788e-07 0.0950572
    outer loop
      vertex 5.1779 -26 11.2449
      vertex 5.15513 -28 11.0064
      vertex 5.176 -28 11.225
    endloop
  endfacet
  facet normal -0.995472 0 0.0950558
    outer loop
      vertex 5.15513 26 11.0064
      vertex 5.22913 28 11.7814
      vertex 5.15513 28 11.0064
    endloop
  endfacet
  facet normal -0.995472 -9.16483e-08 0.0950561
    outer loop
      vertex 5.22913 28 11.7814
      vertex 5.15513 26 11.0064
      vertex 5.22723 26 11.7615
    endloop
  endfacet
  facet normal -0.995472 -9.04555e-08 0.095056
    outer loop
      vertex 5.176 -28 11.225
      vertex 5.25 -26 12
      vertex 5.1779 -26 11.2449
    endloop
  endfacet
  facet normal -0.995472 0 0.0950557
    outer loop
      vertex 5.25 -26 12
      vertex 5.176 -28 11.225
      vertex 5.25 -28 12
    endloop
  endfacet
  facet normal -0.995472 -1.02788e-07 0.0950572
    outer loop
      vertex 5.22723 26 11.7615
      vertex 5.25 28 12
      vertex 5.22913 28 11.7814
    endloop
  endfacet
  facet normal -0.995472 0 0.0950563
    outer loop
      vertex 5.25 28 12
      vertex 5.22723 26 11.7615
      vertex 5.25 26 12
    endloop
  endfacet
  facet normal -0.142314 0 0.989822
    outer loop
      vertex 0.249804 -26 6.75595
      vertex 1.23773 -28 6.89799
      vertex 1.23773 -26 6.89799
    endloop
  endfacet
  facet normal -0.142314 0 0.989822
    outer loop
      vertex 1.23773 -28 6.89799
      vertex 0.249804 -26 6.75595
      vertex 0.249804 -28 6.75595
    endloop
  endfacet
  facet normal -0.142314 0 0.989822
    outer loop
      vertex 0.249804 28 6.75595
      vertex 1.23773 26 6.89799
      vertex 1.23773 28 6.89799
    endloop
  endfacet
  facet normal -0.142314 0 0.989822
    outer loop
      vertex 1.23773 26 6.89799
      vertex 0.249804 28 6.75595
      vertex 0.249804 26 6.75595
    endloop
  endfacet
  facet normal -0.499999 0 0.866026
    outer loop
      vertex 2.18093 -26 7.22443
      vertex 3.0453 -28 7.72348
      vertex 3.0453 -26 7.72348
    endloop
  endfacet
  facet normal -0.499999 0 0.866026
    outer loop
      vertex 3.0453 -28 7.72348
      vertex 2.18093 -26 7.22443
      vertex 2.18093 -28 7.22443
    endloop
  endfacet
  facet normal -0.499999 0 0.866026
    outer loop
      vertex 2.18093 28 7.22443
      vertex 3.0453 26 7.72348
      vertex 3.0453 28 7.72348
    endloop
  endfacet
  facet normal -0.499999 0 0.866026
    outer loop
      vertex 3.0453 26 7.72348
      vertex 2.18093 28 7.22443
      vertex 2.18093 26 7.22443
    endloop
  endfacet
  facet normal -0.786054 0 -0.618158
    outer loop
      vertex 4.41658 26 14.8384
      vertex 4.28947 28 15
      vertex 4.41658 28 14.8384
    endloop
  endfacet
  facet normal -0.786054 -0 -0.618158
    outer loop
      vertex 4.28947 28 15
      vertex 4.41658 26 14.8384
      vertex 4.28947 26 15
    endloop
  endfacet
  facet normal -0.786054 0 -0.618158
    outer loop
      vertex 4.41658 -28 14.8384
      vertex 4.28947 -26 15
      vertex 4.41658 -26 14.8384
    endloop
  endfacet
  facet normal -0.786054 -0 -0.618158
    outer loop
      vertex 4.28947 -26 15
      vertex 4.41658 -28 14.8384
      vertex 4.28947 -28 15
    endloop
  endfacet
  facet normal 0.981929 0 -0.189251
    outer loop
      vertex -5.03734 -28 13.4791
      vertex -5.22623 -26 12.499
      vertex -5.03734 -26 13.4791
    endloop
  endfacet
  facet normal 0.981929 0 -0.189251
    outer loop
      vertex -5.22623 -26 12.499
      vertex -5.03734 -28 13.4791
      vertex -5.22623 -28 12.499
    endloop
  endfacet
  facet normal 0.981929 0 -0.189251
    outer loop
      vertex -5.03734 26 13.4791
      vertex -5.22623 28 12.499
      vertex -5.03734 28 13.4791
    endloop
  endfacet
  facet normal 0.981929 0 -0.189251
    outer loop
      vertex -5.22623 28 12.499
      vertex -5.03734 26 13.4791
      vertex -5.22623 26 12.499
    endloop
  endfacet
  facet normal -0.888835 0 0.458227
    outer loop
      vertex 4.41658 -28 9.16164
      vertex 4.87393 -26 10.0488
      vertex 4.41658 -26 9.16164
    endloop
  endfacet
  facet normal -0.888835 0 0.458227
    outer loop
      vertex 4.87393 -26 10.0488
      vertex 4.41658 -28 9.16164
      vertex 4.87393 -28 10.0488
    endloop
  endfacet
  facet normal -0.888835 0 0.458227
    outer loop
      vertex 4.41658 26 9.16164
      vertex 4.87393 28 10.0488
      vertex 4.41658 28 9.16164
    endloop
  endfacet
  facet normal -0.888835 0 0.458227
    outer loop
      vertex 4.87393 28 10.0488
      vertex 4.41658 26 9.16164
      vertex 4.87393 26 10.0488
    endloop
  endfacet
  facet normal 0.723734 -0 0.690079
    outer loop
      vertex -4.12678 -28 8.75466
      vertex -3.43802 -26 8.03231
      vertex -4.12678 -26 8.75466
    endloop
  endfacet
  facet normal 0.723734 0 0.690079
    outer loop
      vertex -3.43802 -26 8.03231
      vertex -4.12678 -28 8.75466
      vertex -3.43802 -28 8.03231
    endloop
  endfacet
  facet normal 0.723734 -0 0.690079
    outer loop
      vertex -4.12678 26 8.75466
      vertex -3.43802 28 8.03231
      vertex -4.12678 28 8.75466
    endloop
  endfacet
  facet normal 0.723734 0 0.690079
    outer loop
      vertex -3.43802 28 8.03231
      vertex -4.12678 26 8.75466
      vertex -3.43802 26 8.03231
    endloop
  endfacet
  facet normal 0.928368 -0 0.371662
    outer loop
      vertex -5.03734 -28 10.5209
      vertex -4.66639 -26 9.59431
      vertex -5.03734 -26 10.5209
    endloop
  endfacet
  facet normal 0.928368 0 0.371662
    outer loop
      vertex -4.66639 -26 9.59431
      vertex -5.03734 -28 10.5209
      vertex -4.66639 -28 9.59431
    endloop
  endfacet
  facet normal 0.928368 -0 0.371662
    outer loop
      vertex -5.03734 26 10.5209
      vertex -4.66639 28 9.59431
      vertex -5.03734 28 10.5209
    endloop
  endfacet
  facet normal 0.928368 0 0.371662
    outer loop
      vertex -4.66639 28 9.59431
      vertex -5.03734 26 10.5209
      vertex -4.66639 26 9.59431
    endloop
  endfacet
  facet normal 0.841254 -0 0.54064
    outer loop
      vertex -4.66639 -28 9.59431
      vertex -4.12678 -26 8.75466
      vertex -4.66639 -26 9.59431
    endloop
  endfacet
  facet normal 0.841254 0 0.54064
    outer loop
      vertex -4.12678 -26 8.75466
      vertex -4.66639 -28 9.59431
      vertex -4.12678 -28 8.75466
    endloop
  endfacet
  facet normal 0.841254 -0 0.54064
    outer loop
      vertex -4.66639 26 9.59431
      vertex -4.12678 28 8.75466
      vertex -4.66639 28 9.59431
    endloop
  endfacet
  facet normal 0.841254 0 0.54064
    outer loop
      vertex -4.12678 28 8.75466
      vertex -4.66639 26 9.59431
      vertex -4.12678 26 8.75466
    endloop
  endfacet
  facet normal 0.981929 -0 0.189251
    outer loop
      vertex -5.22623 -28 11.501
      vertex -5.03734 -26 10.5209
      vertex -5.22623 -26 11.501
    endloop
  endfacet
  facet normal 0.981929 0 0.189251
    outer loop
      vertex -5.03734 -26 10.5209
      vertex -5.22623 -28 11.501
      vertex -5.03734 -28 10.5209
    endloop
  endfacet
  facet normal 0.981929 -0 0.189251
    outer loop
      vertex -5.22623 26 11.501
      vertex -5.03734 28 10.5209
      vertex -5.22623 28 11.501
    endloop
  endfacet
  facet normal 0.981929 0 0.189251
    outer loop
      vertex -5.03734 28 10.5209
      vertex -5.22623 26 11.501
      vertex -5.03734 26 10.5209
    endloop
  endfacet
  facet normal -0.327069 0 0.945001
    outer loop
      vertex 1.23773 -26 6.89799
      vertex 2.18093 -28 7.22443
      vertex 2.18093 -26 7.22443
    endloop
  endfacet
  facet normal -0.327069 0 0.945001
    outer loop
      vertex 2.18093 -28 7.22443
      vertex 1.23773 -26 6.89799
      vertex 1.23773 -28 6.89799
    endloop
  endfacet
  facet normal -0.327069 0 0.945001
    outer loop
      vertex 1.23773 28 6.89799
      vertex 2.18093 26 7.22443
      vertex 2.18093 28 7.22443
    endloop
  endfacet
  facet normal -0.327069 0 0.945001
    outer loop
      vertex 2.18093 26 7.22443
      vertex 1.23773 28 6.89799
      vertex 1.23773 26 6.89799
    endloop
  endfacet
  facet normal -0.959493 0 0.281733
    outer loop
      vertex 4.87393 -28 10.0488
      vertex 5.15513 -26 11.0064
      vertex 4.87393 -26 10.0488
    endloop
  endfacet
  facet normal -0.959493 0 0.281733
    outer loop
      vertex 5.15513 -26 11.0064
      vertex 4.87393 -28 10.0488
      vertex 5.15513 -28 11.0064
    endloop
  endfacet
  facet normal -0.959493 0 0.281733
    outer loop
      vertex 4.87393 26 10.0488
      vertex 5.15513 28 11.0064
      vertex 4.87393 28 10.0488
    endloop
  endfacet
  facet normal -0.959493 0 0.281733
    outer loop
      vertex 5.15513 28 11.0064
      vertex 4.87393 26 10.0488
      vertex 5.15513 26 11.0064
    endloop
  endfacet
  facet normal -0.654861 0 0.755749
    outer loop
      vertex 3.0453 -26 7.72348
      vertex 3.7996 -28 8.37708
      vertex 3.7996 -26 8.37708
    endloop
  endfacet
  facet normal -0.654861 0 0.755749
    outer loop
      vertex 3.7996 -28 8.37708
      vertex 3.0453 -26 7.72348
      vertex 3.0453 -28 7.72348
    endloop
  endfacet
  facet normal -0.654861 0 0.755749
    outer loop
      vertex 3.0453 28 7.72348
      vertex 3.7996 26 8.37708
      vertex 3.7996 28 8.37708
    endloop
  endfacet
  facet normal -0.654861 0 0.755749
    outer loop
      vertex 3.7996 26 8.37708
      vertex 3.0453 28 7.72348
      vertex 3.0453 26 7.72348
    endloop
  endfacet
  facet normal -0.786053 0 0.618159
    outer loop
      vertex 3.7996 -28 8.37708
      vertex 4.41658 -26 9.16164
      vertex 3.7996 -26 8.37708
    endloop
  endfacet
  facet normal -0.786053 0 0.618159
    outer loop
      vertex 4.41658 -26 9.16164
      vertex 3.7996 -28 8.37708
      vertex 4.41658 -28 9.16164
    endloop
  endfacet
  facet normal -0.786053 0 0.618159
    outer loop
      vertex 3.7996 26 8.37708
      vertex 4.41658 28 9.16164
      vertex 3.7996 28 8.37708
    endloop
  endfacet
  facet normal -0.786053 0 0.618159
    outer loop
      vertex 4.41658 28 9.16164
      vertex 3.7996 26 8.37708
      vertex 4.41658 26 9.16164
    endloop
  endfacet
  facet normal 0.580057 0 0.814576
    outer loop
      vertex -3.43802 -26 8.03231
      vertex -2.625 -28 7.45337
      vertex -2.625 -26 7.45337
    endloop
  endfacet
  facet normal 0.580057 0 0.814576
    outer loop
      vertex -2.625 -28 7.45337
      vertex -3.43802 -26 8.03231
      vertex -3.43802 -28 8.03231
    endloop
  endfacet
  facet normal 0.580057 0 0.814576
    outer loop
      vertex -3.43802 28 8.03231
      vertex -2.625 26 7.45337
      vertex -2.625 28 7.45337
    endloop
  endfacet
  facet normal 0.580057 0 0.814576
    outer loop
      vertex -2.625 26 7.45337
      vertex -3.43802 28 8.03231
      vertex -3.43802 26 8.03231
    endloop
  endfacet
  facet normal 0.415415 0 0.909632
    outer loop
      vertex -2.625 -26 7.45337
      vertex -1.71711 -28 7.03874
      vertex -1.71711 -26 7.03874
    endloop
  endfacet
  facet normal 0.415415 0 0.909632
    outer loop
      vertex -1.71711 -28 7.03874
      vertex -2.625 -26 7.45337
      vertex -2.625 -28 7.45337
    endloop
  endfacet
  facet normal 0.415415 0 0.909632
    outer loop
      vertex -2.625 28 7.45337
      vertex -1.71711 26 7.03874
      vertex -1.71711 28 7.03874
    endloop
  endfacet
  facet normal 0.415415 0 0.909632
    outer loop
      vertex -1.71711 26 7.03874
      vertex -2.625 28 7.45337
      vertex -2.625 26 7.45337
    endloop
  endfacet
  facet normal 0.235758 0 0.971812
    outer loop
      vertex -1.71711 -26 7.03874
      vertex -0.747152 -28 6.80344
      vertex -0.747152 -26 6.80344
    endloop
  endfacet
  facet normal 0.235758 0 0.971812
    outer loop
      vertex -0.747152 -28 6.80344
      vertex -1.71711 -26 7.03874
      vertex -1.71711 -28 7.03874
    endloop
  endfacet
  facet normal 0.235758 0 0.971812
    outer loop
      vertex -1.71711 28 7.03874
      vertex -0.747152 26 6.80344
      vertex -0.747152 28 6.80344
    endloop
  endfacet
  facet normal 0.235758 0 0.971812
    outer loop
      vertex -0.747152 26 6.80344
      vertex -1.71711 28 7.03874
      vertex -1.71711 26 7.03874
    endloop
  endfacet
  facet normal 0.0475821 0 0.998867
    outer loop
      vertex -0.747152 -26 6.80344
      vertex 0.249804 -28 6.75595
      vertex 0.249804 -26 6.75595
    endloop
  endfacet
  facet normal 0.0475821 0 0.998867
    outer loop
      vertex 0.249804 -28 6.75595
      vertex -0.747152 -26 6.80344
      vertex -0.747152 -28 6.80344
    endloop
  endfacet
  facet normal 0.0475821 0 0.998867
    outer loop
      vertex -0.747152 28 6.80344
      vertex 0.249804 26 6.75595
      vertex 0.249804 28 6.75595
    endloop
  endfacet
  facet normal 0.0475821 0 0.998867
    outer loop
      vertex 0.249804 26 6.75595
      vertex -0.747152 28 6.80344
      vertex -0.747152 26 6.80344
    endloop
  endfacet
endsolid OpenSCAD_Model
